<?xml version="1.0" encoding="utf-8"?>
<!-- Generator: Adobe Illustrator 26.0.1, SVG Export Plug-In . SVG Version: 6.00 Build 0)  -->
<svg version="1.1" xmlns="http://www.w3.org/2000/svg" xmlns:xlink="http://www.w3.org/1999/xlink" x="0px" y="0px"
	 viewBox="0 0 1126 1151" style="enable-background:new 0 0 1126 1151;" xml:space="preserve">
<style type="text/css">
	.st0{fill:#F9F9F9;}
	.st1{opacity:0.83;fill:url(#SVGID_1_);}
	.st2{opacity:0.53;fill:url(#SVGID_00000078730100270227074050000008816388720942109065_);}
	.st3{fill:url(#SVGID_00000042716950321234048840000001561056062337383056_);}
	.st4{fill:url(#SVGID_00000059267468396138653210000013960745653275816635_);}
	.st5{fill:url(#SVGID_00000029009199476182755610000012764941806930058643_);}
	.st6{fill:url(#SVGID_00000057859133059155169970000014982142320723437728_);}
	
		.st7{fill:none;stroke:url(#SVGID_00000038387203957265560930000001578779972471741092_);stroke-width:6;stroke-linecap:round;stroke-linejoin:round;stroke-miterlimit:10;}
	.st8{fill:url(#SVGID_00000155112299960050173720000013252549818716210581_);}
	.st9{fill:url(#SVGID_00000049197454339308909760000013493144017180271019_);}
	.st10{fill:url(#SVGID_00000038406339582139743680000003324821857400681864_);}
	.st11{fill:url(#SVGID_00000000204898616696149040000001361645612064386998_);}
	
		.st12{fill:none;stroke:url(#SVGID_00000023264354399509169510000005043322508310800793_);stroke-width:6;stroke-linecap:round;stroke-linejoin:round;stroke-miterlimit:10;}
	.st13{fill:#1257DD;}
	.st14{opacity:0.83;fill:url(#SVGID_00000109025921082146522080000006566631274835219867_);}
	.st15{opacity:0.53;fill:url(#SVGID_00000121978381094735682850000005790926494998489485_);}
	.st16{opacity:0.83;fill:url(#SVGID_00000028312576512184453010000005454449260710368702_);}
	.st17{opacity:0.53;fill:url(#SVGID_00000156568081219213397380000009817820964604229820_);}
	.st18{opacity:0.5;fill:#24B5D9;}
	.st19{fill:#FFFFFF;}
	.st20{fill:none;stroke:#FFFFFF;stroke-width:5;stroke-linecap:round;stroke-linejoin:round;stroke-miterlimit:10;}
	.st21{fill:url(#SVGID_00000109708985972845260020000003316088789178158994_);}
	.st22{fill:url(#SVGID_00000150816726676832437160000005656275558734768805_);}
	.st23{fill:url(#SVGID_00000103244538107229368680000016539226277724299172_);}
	.st24{fill:url(#SVGID_00000040559407952862730740000011472461076465939603_);}
	
		.st25{fill:none;stroke:url(#SVGID_00000134929808927082810640000006336777085015748247_);stroke-width:6;stroke-linecap:round;stroke-linejoin:round;stroke-miterlimit:10;}
	.st26{opacity:0.83;fill:url(#SVGID_00000074404272082322537180000012150219483989510577_);}
	.st27{opacity:0.53;fill:url(#SVGID_00000038396879124799798350000000613531394284728708_);}
	.st28{fill:url(#SVGID_00000157272357665236691300000007083503982421975425_);}
	.st29{fill:url(#SVGID_00000054965629931095532770000009045322472159757494_);}
	.st30{fill:url(#SVGID_00000044879326298304023400000011928938678877717901_);}
	.st31{fill:url(#SVGID_00000115513334081419066760000012597133271204705701_);}
	
		.st32{fill:none;stroke:url(#SVGID_00000005960617607548096520000002873263456100157349_);stroke-width:6;stroke-linecap:round;stroke-linejoin:round;stroke-miterlimit:10;}
	.st33{opacity:0.83;fill:url(#SVGID_00000031182423711152931380000016899562609892897715_);}
	.st34{opacity:0.53;fill:url(#SVGID_00000118391444379230172900000003462096924223890571_);}
	.st35{fill:url(#SVGID_00000085966139385724398630000008121540947170558909_);}
	.st36{fill:url(#SVGID_00000152951905361165714890000014729233957302537885_);}
	.st37{fill:url(#SVGID_00000178902115922582275550000005827083662226963095_);}
	.st38{fill:url(#SVGID_00000074442838637873804450000004144728252117537925_);}
	
		.st39{fill:none;stroke:url(#SVGID_00000085952459025861333060000005085127407911072153_);stroke-width:6;stroke-linecap:round;stroke-linejoin:round;stroke-miterlimit:10;}
	.st40{opacity:0.83;fill:url(#SVGID_00000084515132683229802950000017811212576538524588_);}
	.st41{opacity:0.53;fill:url(#SVGID_00000100356948508297696420000009048526331635526298_);}
	.st42{fill:url(#SVGID_00000180338609441959249720000014879251019058648464_);}
	.st43{fill:url(#SVGID_00000124125843527788630990000017575811209412613010_);}
	.st44{fill:url(#SVGID_00000134211998371340519630000015948473370800563891_);}
	.st45{fill:url(#SVGID_00000118357205056804542680000005761113052191087521_);}
	
		.st46{fill:none;stroke:url(#SVGID_00000156576582029418920200000000976536931867511477_);stroke-width:6;stroke-linecap:round;stroke-linejoin:round;stroke-miterlimit:10;}
	.st47{opacity:0.5;fill:url(#SVGID_00000174574612426032902810000006655976767095226538_);}
	.st48{opacity:0.83;fill:url(#SVGID_00000118381085295890078200000004851933731796999856_);}
	.st49{opacity:0.53;fill:url(#SVGID_00000048474408741971287030000014472967560034496446_);}
	.st50{fill:none;stroke:#000000;stroke-miterlimit:10;}
	.st51{opacity:0.53;fill:url(#SVGID_00000181793522609594805680000014413059020512314000_);}
	.st52{opacity:0.53;fill:url(#SVGID_00000062183861171795876280000010904384842477421698_);}
	.st53{fill:none;stroke:#FFFFFF;stroke-width:15;stroke-linecap:round;stroke-linejoin:round;stroke-miterlimit:10;}
	.st54{fill:none;stroke:#000000;stroke-width:5;stroke-linecap:round;stroke-linejoin:round;stroke-miterlimit:10;}
	.st55{fill:#BABABA;}
	.st56{opacity:0.5;fill:url(#SVGID_00000121239665599277617080000008065668038249670583_);}
	.st57{fill:#2E5DF4;stroke:#000000;stroke-width:14;stroke-miterlimit:10;}
	.st58{fill:#2E5DF4;}
</style>
<g id="Layer_2_00000139271044324754737130000002424614848771141519_">
</g>
<g id="Layer_1_00000135685765248743004460000000048367615678908855_">
	<path class="st19" d="M635.2,887.3c-6.6,8.4-15,12.5-25.8,11.3c-3-0.4-5.4-2-8-4.8c3.7,1.2,6.7,2.5,9.7,2.9
		c6.7,1,12.5-1.9,18.1-5.4c2-1.3,4.1-2.6,6.1-3.9L635.2,887.3z"/>
	<path class="st19" d="M635.3,887.4c1.9-1.9,3.7-3.8,5.6-5.7c0.3,0.3,0.5,0.6,0.8,0.8c-1.8,2-3.5,4.1-6.4,4.8
		C635.2,887.3,635.3,887.4,635.3,887.4z"/>
	<path class="st19" d="M926,642c-1.1,1-2.2,2-3.3,3c-0.2-0.2-0.5-0.5-0.7-0.7c1.1-1.1,2.2-2.2,3.3-3.2
		C925.6,641.4,925.8,641.7,926,642z"/>
	<path class="st19" d="M914,652.2c1.3-1.7,2.5-3.4,3.8-5c0.3,0.3,0.6,0.5,0.9,0.8c-1.1,1.9-2.9,3.1-4.8,4.2L914,652.2z"/>
	<path class="st19" d="M913.9,652.1c-1.6,1.5-3.2,3-4.8,4.4c0.8-2.5,2.2-4.2,4.9-4.3C914,652.2,913.9,652.1,913.9,652.1z"/>
	<path class="st19" d="M656.7,870c1.3-1.7,2.6-3.3,3.9-5c0.3,0.3,0.7,0.7,1,1c-1.7,1.3-3.3,2.6-5,3.9
		C656.5,869.9,656.7,870,656.7,870z"/>
	<path class="st19" d="M656.5,869.9c-1.6,1.5-3.2,2.9-4.7,4.4c0.8-2.4,2.2-4.2,4.9-4.3C656.7,870,656.5,869.9,656.5,869.9z"/>
	<path class="st19" d="M873.4,686.6c1.3-1.7,2.6-3.4,3.9-5c0.3,0.3,0.7,0.7,1,1c-1.7,1.3-3.3,2.6-5,4
		C873.2,686.5,873.4,686.6,873.4,686.6z"/>
	<path class="st19" d="M932.3,636.6c-0.9,0.8-1.7,1.5-2.6,2.3c-0.2-0.2-0.4-0.4-0.5-0.6c0.9-0.8,1.7-1.5,2.6-2.3
		C932,636.2,932.2,636.4,932.3,636.6z"/>
	<path class="st19" d="M902.2,661.2c0.8-0.8,1.6-1.5,2.5-2.3c0.2,0.2,0.4,0.4,0.5,0.6c-0.8,0.8-1.6,1.5-2.5,2.3
		C902.6,661.6,902.4,661.4,902.2,661.2z"/>
	<path class="st19" d="M897.9,665.8c-0.8,0.7-1.7,1.5-2.5,2.2c-0.2-0.2-0.3-0.4-0.5-0.6c0.8-0.7,1.7-1.5,2.5-2.2
		C897.6,665.4,897.7,665.6,897.9,665.8z"/>
	<path class="st19" d="M936.6,631.9c0.8-0.7,1.6-1.4,2.4-2.2c0.2,0.2,0.3,0.3,0.5,0.5c-0.8,0.8-1.5,1.6-2.3,2.5
		C937,632.4,936.8,632.1,936.6,631.9z"/>
	<path class="st19" d="M881.3,678.9c0.8-0.8,1.7-1.5,2.5-2.3c0.2,0.2,0.4,0.4,0.5,0.6c-0.8,0.8-1.7,1.5-2.5,2.3
		C881.7,679.3,881.5,679.1,881.3,678.9z"/>
	<path class="st19" d="M644.9,878.8c0.8-0.7,1.6-1.4,2.5-2.1c0.2,0.2,0.3,0.4,0.5,0.6c-0.8,0.7-1.7,1.4-2.5,2.1
		C645.2,879.1,645,879,644.9,878.8z"/>
	<path class="st19" d="M888.7,672.7c0.8-0.8,1.6-1.5,2.4-2.3c0.2,0.2,0.4,0.4,0.5,0.6c-0.8,0.8-1.6,1.5-2.5,2.3
		C889,673,888.9,672.8,888.7,672.7z"/>
	<g>
		<path class="st57" d="M356.3,414.3c67.6,0,135.2,0,202.8-0.1c5.4,0,10.9-0.7,16.1-2c16.8-4.3,24-18.1,25.4-31.5
			c0.2-2.3,0.1-4.6,0.1-6.9c0-46.9,0-93.8,0.1-140.6c0-6,0.5-12.1,1.4-18.1c2.3-15,14.2-22.6,28.9-18.7c6,1.6,11.3,4.6,15.8,8.7
			c9.7,8.9,19.4,17.8,29,26.9c18.4,17.4,36.7,34.8,55.1,52.2c30.1,28.5,60.3,56.9,90.4,85.3c20.9,19.7,41.8,39.3,62.6,58.9
			c30.1,28.4,60.3,56.9,90.4,85.3c15.2,14.3,30.6,28.5,45.8,42.9c7.6,7.2,13,15.8,15.5,26.1c0.4,1.4,0.2,3.3-0.5,4.6
			c-5,9.3-11.3,17.4-19.5,24.2c-22,18.3-43.8,36.9-65.6,55.5c-24.9,21.1-49.7,42.2-74.7,63.2c-22.7,19.1-45.5,38.1-68.2,57.3
			c-17.9,15.1-35.6,30.4-53.4,45.5c-11.2,9.4-22.6,18.6-33.8,28c-10.5,8.9-20.8,18.1-31.3,27.1c-11.3,9.6-22.4,19.5-34.1,28.7
			c-6.5,5.2-13.9,9.3-22.1,11.6c-10,2.8-20.7,0.2-25.8-7.8c-3.5-5.5-6.2-11.6-6.2-18.7c0.2-31.4,0.1-62.8,0-94.2
			c0-4.8,0.7-9.8-0.2-14.4c-1.6-8.1-0.7-16-0.6-24.1c0.1-5.4-0.1-10.9-0.5-16.3c-0.8-10.7-5.9-19-15-24.7c-10-6.2-20.8-8.2-32.4-6.6
			c-2.7,0.4-5.4,0.4-8.1,0.4c-15.1,0-30.2,0.9-45.2-0.2c-18.8-1.3-37.6,1-56.4,0.2c-3.8-0.2-7.5-0.5-11.2-0.8
			c-1.9-0.1-3.8-0.3-5.6-0.2c-8.3,0.3-16.7,1-25,1c-68.2,0.1-136.5,0.1-204.7,0c-10.2,0-20.4-0.6-30.6-0.9c-1,0-2.1,0.1-3.1,0.2
			c-27.5,2.9-49-7.4-65-29.6c-2.8-3.8-4.5-8.4-6.7-12.7c-0.2-0.4-0.2-0.9-0.4-1.2c-5.1-7-4.1-15-4.1-22.9c0-57.3,0-114.7,0-172
			c0-15.8,4.6-30.1,14.5-42.5c13.3-16.7,30.6-25.9,52-25.9C220.2,414.2,288.3,414.3,356.3,414.3
			C356.3,414.3,356.3,414.3,356.3,414.3z M424.4,491c34.1,0,68.2-0.2,102.3,0.2c8.5,0.1,14.6-3.1,19.4-9.4c2.9-3.8,5.9-8.2,5.2-13.1
			c-1.9-12.4-12-22-24.1-22c-68.2,0.3-136.4,0.2-204.7,0.1c-11.2,0-17.8,5.9-22.7,14.9c-3,5.4-2.8,11.1,0.6,16.1
			c5.3,7.8,11.4,13.6,22.3,13.4C356.5,490.6,390.5,491,424.4,491z M197,490.9C197,490.9,197,490.9,197,490.9c6.5,0,13,0.2,19.4-0.1
			c10.1-0.4,19.1-10.1,20-20c1.2-13-10.7-24.2-22.7-24c-11.1,0.2-22.2,0.2-33.3,0c-6.6-0.1-12,2.4-16.3,6.8c-8,8.3-9,14.5-5.2,23.3
			c3.6,8.3,10,13.9,19.8,14C184.8,491,190.9,490.9,197,490.9z"/>
		<path class="st19" d="M113.5,745.7c1.5,0.7,3.1,1.3,4.5,2.2c12.7,7.8,26.6,10.6,41.3,10.6c134.4-0.1,268.7,0,403.1-0.1
			c8.2,0,15.8,1.5,22.6,6.2c1.5,1,2.8,2.2,3.6,4c-2.4-1.4-4.9-2.9-7.3-4.3c-7.4-4.2-15.8-3.7-23.8-4.4c-2.5-0.2-5-0.1-7.5-0.1
			c-132.7,0-265.4,0-398.1,0c-12.5,0-23.9-3.9-34.4-10.3c-1.5-0.9-2.6-2.6-3.9-3.9L113.5,745.7z"/>
		<path class="st19" d="M113.7,745.6c-5.5-1.3-8-5.9-10.6-10.3c3.5,3.5,7,7,10.5,10.5C113.5,745.7,113.7,745.6,113.7,745.6z"/>
		<path class="st19" d="M912.8,731.7c-2.7,2.7-5.4,5.3-8.1,8l0.2,0.1c2.7-2.7,5.4-5.3,8-8C913,731.8,912.8,731.7,912.8,731.7z"/>
		<path class="st19" d="M807,822.7c1.5-2,3.1-4,4.6-6.1c0.4,0.4,0.8,0.8,1.2,1.2c-2,1.6-4,3.2-6,4.8L807,822.7z"/>
		<path class="st19" d="M699.8,913.5c-1.4,1.2-2.9,2.3-4.3,3.5c-0.2-0.2-0.4-0.5-0.6-0.7c1.4-1.3,2.7-2.6,4.1-3.9
			C699.2,912.7,699.5,913.1,699.8,913.5z"/>
		<path class="st19" d="M937.5,712.1c-1.9,1.8-3.8,3.6-5.7,5.4c0.9-3,2.6-5.1,5.8-5.2C937.6,712.2,937.5,712.1,937.5,712.1z"/>
		<path class="st19" d="M921.3,726c1.6-2,3.1-4,4.7-6c0.4,0.4,0.8,0.8,1.2,1.1c-2,1.6-4,3.2-6,4.7C921.1,725.9,921.3,726,921.3,726z
			"/>
		<path class="st19" d="M921.1,725.9c-2.6,2.2-4.3,5.6-8.3,5.8c0,0,0.1,0.1,0.1,0.1c2.6-2.1,4.2-5.7,8.3-5.8
			C921.3,726,921.1,725.9,921.1,725.9z"/>
		<path class="st19" d="M904.8,739.7c-1.9,1.8-3.8,3.6-5.7,5.4c0.9-3.1,2.6-5.1,5.8-5.3C904.9,739.8,904.8,739.7,904.8,739.7z"/>
		<path class="st19" d="M888.6,753.6c1.5-2,3.1-4,4.6-6c0.4,0.4,0.8,0.8,1.2,1.2c-2,1.6-4,3.1-6,4.7
			C888.5,753.5,888.6,753.6,888.6,753.6z"/>
		<path class="st19" d="M888.5,753.5c-1.9,1.8-3.8,3.6-5.7,5.4c0.9-3,2.6-5.1,5.8-5.2C888.6,753.6,888.5,753.5,888.5,753.5z"/>
		<path class="st19" d="M878,762.6c-1.3,1.2-2.6,2.4-3.9,3.6c-0.3-0.3-0.5-0.5-0.8-0.8c1.3-1.3,2.6-2.6,3.9-3.9
			C877.5,761.9,877.7,762.2,878,762.6z"/>
		<path class="st19" d="M758,864.1c1.6-2,3.1-4,4.7-6c0.4,0.4,0.8,0.8,1.2,1.2c-2,1.6-4,3.1-6,4.7L758,864.1z"/>
		<path class="st19" d="M856,781.3c1.5-2,3.1-4,4.6-6c0.4,0.4,0.8,0.8,1.2,1.2c-2,1.6-4,3.2-6,4.7C855.8,781.1,856,781.3,856,781.3z
			"/>
		<path class="st19" d="M855.8,781.1c-1.9,1.8-3.8,3.6-5.7,5.4c1-3,2.7-5.1,5.9-5.3C856,781.3,855.8,781.1,855.8,781.1z"/>
		<path class="st19" d="M830.9,802.7c0.7-2.9,2.8-4.4,5.8-4.9c-2,1.6-3.9,3.2-5.9,4.8L830.9,802.7z"/>
		<path class="st19" d="M830.8,802.6c-2,1.7-3.9,3.5-5.9,5.2c1.1-2.9,2.8-5,6-5.1C830.9,802.7,830.8,802.6,830.8,802.6z"/>
		<path class="st19" d="M806.9,822.6c-1.9,1.8-3.8,3.5-5.8,5.3c1-3,2.7-5,5.9-5.2C807,822.7,806.9,822.6,806.9,822.6z"/>
		<path class="st19" d="M790.7,836.5c1.5-2,3.1-4,4.6-6c0.4,0.4,0.8,0.8,1.2,1.1c-2,1.6-4,3.1-6,4.7L790.7,836.5z"/>
		<path class="st19" d="M790.5,836.4c-1.9,1.8-3.8,3.6-5.7,5.4c0.9-3,2.6-5.1,5.8-5.3C790.7,836.5,790.5,836.4,790.5,836.4z"/>
		<path class="st19" d="M774.3,850.3c1.5-2,3.1-4,4.6-6c0.4,0.4,0.8,0.8,1.2,1.2c-2,1.6-4,3.1-6,4.7L774.3,850.3z"/>
		<path class="st19" d="M774.2,850.2c-1.9,1.8-3.8,3.6-5.7,5.3c1-3,2.6-5.1,5.8-5.2C774.3,850.3,774.2,850.2,774.2,850.2z"/>
		<path class="st19" d="M757.8,864c-1.9,1.8-3.8,3.6-5.6,5.3c0.9-3,2.6-5.1,5.8-5.2C758,864.1,757.8,864,757.8,864z"/>
		<path class="st19" d="M741.7,878c1.5-2,3.1-4,4.6-6.1c0.4,0.4,0.8,0.8,1.2,1.2c-2,1.6-4,3.2-6,4.8
			C741.5,877.9,741.7,878,741.7,878z"/>
		<path class="st19" d="M741.5,877.9c-1.9,1.8-3.9,3.5-5.8,5.3c1-2.9,2.7-5.1,5.9-5.2C741.7,878,741.5,877.9,741.5,877.9z"/>
		<path class="st19" d="M725.4,891.8c0.8-2.8,2.7-4.4,5.9-4.8c-2,1.6-4,3.2-6,4.7L725.4,891.8z"/>
		<path class="st19" d="M725.2,891.7c-1.9,1.8-3.8,3.6-5.7,5.3c1-3,2.7-5,5.9-5.2C725.4,891.8,725.2,891.7,725.2,891.7z"/>
		<path class="st19" d="M869.6,770.2c-1,0.9-1.9,1.8-2.9,2.6c-0.2-0.2-0.4-0.4-0.6-0.6c0.8-1.1,1.6-2.1,2.4-3.2
			C868.8,769.4,869.2,769.8,869.6,770.2z"/>
		<path class="st19" d="M714.8,900.5c-1,0.9-2,1.8-3,2.7c-0.2-0.2-0.4-0.5-0.6-0.7c1-0.9,2-1.8,3-2.7
			C714.4,900.1,714.6,900.3,714.8,900.5z"/>
		<path class="st19" d="M841.8,792.1c1-0.9,2-1.9,3-2.8c0.2,0.2,0.4,0.5,0.7,0.7c-1,0.9-2,1.9-3,2.8
			C842.2,792.5,842,792.3,841.8,792.1z"/>
		<path class="st19" d="M689.6,921.8c-1,0.9-2,1.8-3,2.7c-0.2-0.2-0.4-0.5-0.6-0.7c1-0.9,2-1.8,3-2.7
			C689.2,921.3,689.4,921.6,689.6,921.8z"/>
		<path class="st19" d="M816.6,813.3c1-0.9,1.9-1.8,2.9-2.7c0.2,0.2,0.4,0.4,0.7,0.6c-0.9,1-1.7,1.9-2.6,2.9
			C817.2,813.8,816.9,813.5,816.6,813.3z"/>
		<path class="st19" d="M707.3,907c-1,0.9-2,1.8-3,2.6c-0.2-0.2-0.4-0.4-0.6-0.6c0.9-1,1.9-2,2.8-3C706.7,906.3,707,906.7,707.3,907
			z"/>
		<path d="M424.4,491c-33.9,0-67.8-0.4-101.7,0.2c-11,0.2-17.1-5.7-22.3-13.4c-3.4-5-3.6-10.7-0.6-16.1c4.9-9,11.5-14.9,22.7-14.9
			c68.2,0.2,136.4,0.2,204.7-0.1c12.1-0.1,22.3,9.5,24.1,22c0.7,4.9-2.2,9.3-5.2,13.1c-4.8,6.3-10.9,9.5-19.4,9.4
			C492.6,490.7,458.5,491,424.4,491z M424.7,449.3c-33.9,0-67.8,0.1-101.7-0.1c-5.8,0-10.7,1.4-15.1,5c-6.4,5.2-8.7,13.7-6,20.8
			c3.5,9,12.3,13.5,20.6,13.5c51.9-0.2,103.8-0.1,155.7-0.1c4.4,0,8.7-0.1,13.1-0.1c12.8,0,25.5,0.4,38.3-0.1
			c8.5-0.3,14.4-5.3,17.3-13.3c2.7-7.7,0.6-14.3-5.1-20c-4.3-4.3-9.4-5.7-15.4-5.7C492.5,449.4,458.6,449.3,424.7,449.3z"/>
		<path d="M197,490.9c-6.1,0-12.1,0.1-18.2,0c-9.8-0.1-16.2-5.7-19.8-14c-3.8-8.9-2.8-15,5.2-23.3c4.3-4.4,9.7-7,16.3-6.8
			c11.1,0.2,22.2,0.2,33.3,0c11.9-0.2,23.8,11,22.7,24c-0.9,9.9-9.9,19.6-20,20C210,491.1,203.5,490.9,197,490.9
			C197,490.9,197,490.9,197,490.9z M196.6,488.5c6.1,0,12.1,0.3,18.2-0.1c10.8-0.6,19.2-9.3,19.1-19.5c-0.1-10.8-8.7-19.4-19.7-19.6
			c-11.7-0.2-23.4-0.1-35.2,0c-8.5,0.1-14.3,4.6-17.7,11.9c-5.8,12.5,3.4,26.5,17.6,27.2C184.9,488.7,190.8,488.5,196.6,488.5z"/>
		<rect x="141.5" y="437.8" class="st58" width="432.8" height="88"/>
		<path class="st19" d="M424.7,449.3c33.9,0,67.8,0.1,101.7-0.1c6,0,11.1,1.4,15.4,5.7c5.7,5.7,7.8,12.3,5.1,20
			c-2.9,8.1-8.8,13-17.3,13.3c-12.7,0.5-25.5,0.1-38.3,0.1c-4.4,0-8.7,0.1-13.1,0.1c-51.9,0-103.8-0.1-155.7,0.1
			c-8.3,0-17.1-4.5-20.6-13.5c-2.8-7.1-0.4-15.6,6-20.8c4.4-3.6,9.3-5.1,15.1-5C356.9,449.4,390.8,449.3,424.7,449.3z"/>
		<path class="st19" d="M196.6,488.5c-5.9,0-11.7,0.2-17.6,0c-14.2-0.7-23.4-14.6-17.6-27.2c3.4-7.3,9.2-11.9,17.7-11.9
			c11.7-0.1,23.4-0.1,35.2,0c11,0.1,19.5,8.8,19.7,19.6c0.1,10.2-8.2,18.9-19.1,19.5C208.8,488.7,202.7,488.5,196.6,488.5z"/>
	</g>
</g>
<g id="Layer_3">
</g>
<g id="Layer_4">
</g>
</svg>
