<?xml version="1.0" encoding="utf-8"?>
<!-- Generator: Adobe Illustrator 26.0.1, SVG Export Plug-In . SVG Version: 6.00 Build 0)  -->
<svg version="1.1" xmlns="http://www.w3.org/2000/svg" xmlns:xlink="http://www.w3.org/1999/xlink" x="0px" y="0px"
	 viewBox="0 0 1126 1151" style="enable-background:new 0 0 1126 1151;" xml:space="preserve">
<style type="text/css">
	.st0{fill:#F9F9F9;}
	.st1{opacity:0.83;fill:url(#SVGID_1_);}
	.st2{opacity:0.53;fill:url(#SVGID_00000081641591200882864770000014307286813703875457_);}
	.st3{fill:url(#SVGID_00000153671144066728731850000016958203423199239061_);}
	.st4{fill:url(#SVGID_00000026162914890949714190000010290293683808317321_);}
	.st5{fill:url(#SVGID_00000137828827135520785620000009592412722662467238_);}
	.st6{fill:url(#SVGID_00000028320165172381599650000002219975902257165241_);}
	
		.st7{fill:none;stroke:url(#SVGID_00000049939507947324137360000010450728452714859678_);stroke-width:6;stroke-linecap:round;stroke-linejoin:round;stroke-miterlimit:10;}
	.st8{fill:url(#SVGID_00000160886115659394859830000013098719138277661107_);}
	.st9{fill:url(#SVGID_00000135686838510144003450000013476918641608729269_);}
	.st10{fill:url(#SVGID_00000117649947659157048570000007213098380214081959_);}
	.st11{fill:url(#SVGID_00000092439078999916249690000015876591985183211966_);}
	
		.st12{fill:none;stroke:url(#SVGID_00000095339656922055066000000015004065152817935502_);stroke-width:6;stroke-linecap:round;stroke-linejoin:round;stroke-miterlimit:10;}
	.st13{fill:#1257DD;}
	.st14{opacity:0.83;fill:url(#SVGID_00000153672302098686358700000006227795007904368786_);}
	.st15{opacity:0.53;fill:url(#SVGID_00000038399474915544607880000005663238929180750214_);}
	.st16{opacity:0.83;fill:url(#SVGID_00000001660862036734511080000002702726017985518227_);}
	.st17{opacity:0.53;fill:url(#SVGID_00000083773212669772173160000014785402518590781615_);}
	.st18{opacity:0.5;fill:#24B5D9;}
	.st19{fill:#FFFFFF;}
	.st20{fill:none;stroke:#FFFFFF;stroke-width:5;stroke-linecap:round;stroke-linejoin:round;stroke-miterlimit:10;}
	.st21{fill:url(#SVGID_00000155110649686159634790000006599940582056190093_);}
	.st22{fill:url(#SVGID_00000180347983864668175010000004707002155608635828_);}
	.st23{fill:url(#SVGID_00000124870566066906302810000005878895084257071776_);}
	.st24{fill:url(#SVGID_00000146469457074963160640000011154944748417200302_);}
	
		.st25{fill:none;stroke:url(#SVGID_00000090978686813183525150000012991534359601662890_);stroke-width:6;stroke-linecap:round;stroke-linejoin:round;stroke-miterlimit:10;}
	.st26{opacity:0.83;fill:url(#SVGID_00000036224034571163162480000013140320153289109173_);}
	.st27{opacity:0.53;fill:url(#SVGID_00000068645683539868650120000000857160724313622708_);}
	.st28{fill:url(#SVGID_00000100367304712246225880000012498106305771697336_);}
	.st29{fill:url(#SVGID_00000033332887621612767420000004714310469543209115_);}
	.st30{fill:url(#SVGID_00000059291237040378847080000006907650036964604567_);}
	.st31{fill:url(#SVGID_00000119825645226562730660000005841242653335178897_);}
	
		.st32{fill:none;stroke:url(#SVGID_00000134938198155018611620000006430748643097941930_);stroke-width:6;stroke-linecap:round;stroke-linejoin:round;stroke-miterlimit:10;}
	.st33{opacity:0.83;fill:url(#SVGID_00000044158240514744809470000003157803434453952409_);}
	.st34{opacity:0.53;fill:url(#SVGID_00000019665217059141242760000003173629224068682882_);}
	.st35{fill:url(#SVGID_00000151540820629324410540000000511657749613651377_);}
	.st36{fill:url(#SVGID_00000142894073933799478870000016079191109178413244_);}
	.st37{fill:url(#SVGID_00000085972824516921312700000017821550984960265349_);}
	.st38{fill:url(#SVGID_00000039843189100101682770000007937029270333192081_);}
	
		.st39{fill:none;stroke:url(#SVGID_00000016768823034235921860000013398003812517237650_);stroke-width:6;stroke-linecap:round;stroke-linejoin:round;stroke-miterlimit:10;}
	.st40{opacity:0.83;fill:url(#SVGID_00000174574423315694808490000002183806593089757352_);}
	.st41{opacity:0.53;fill:url(#SVGID_00000003081016929829092200000005593675455943785351_);}
	.st42{fill:url(#SVGID_00000158718092577897166640000010395161826191748758_);}
	.st43{fill:url(#SVGID_00000140014649666809850510000004524057582754089345_);}
	.st44{fill:url(#SVGID_00000068668800816444198750000004797249611525280389_);}
	.st45{fill:url(#SVGID_00000139278050048159832540000011639833750202954942_);}
	
		.st46{fill:none;stroke:url(#SVGID_00000013894834448186675420000004549031302170368155_);stroke-width:6;stroke-linecap:round;stroke-linejoin:round;stroke-miterlimit:10;}
	.st47{opacity:0.5;fill:url(#SVGID_00000129918770489199589200000005601936236044149687_);}
	.st48{opacity:0.83;fill:url(#SVGID_00000093177335000982853260000012346246455150644371_);}
	.st49{opacity:0.53;fill:url(#SVGID_00000103265554091243341970000008673836699032565154_);}
	.st50{fill:none;stroke:#000000;stroke-miterlimit:10;}
	.st51{opacity:0.53;fill:url(#SVGID_00000062909940287666818360000002639454958071610029_);}
	.st52{opacity:0.53;fill:url(#SVGID_00000179644911231707702440000012317947018427351431_);}
	.st53{fill:none;stroke:#FFFFFF;stroke-width:15;stroke-linecap:round;stroke-linejoin:round;stroke-miterlimit:10;}
	.st54{fill:none;stroke:#000000;stroke-width:5;stroke-linecap:round;stroke-linejoin:round;stroke-miterlimit:10;}
	.st55{fill:#BABABA;}
	.st56{opacity:0.5;fill:url(#SVGID_00000011027149291992561140000000179531877930357396_);}
	.st57{fill:#2E5DF4;stroke:#000000;stroke-width:14;stroke-miterlimit:10;}
	.st58{fill:#2E5DF4;}
</style>
<g id="Layer_2_00000139271044324754737130000002424614848771141519_">
</g>
<g id="Layer_1_00000135685765248743004460000000048367615678908855_">
	<g>
		<path class="st57" d="M767.5,427.5c68,0,136-0.1,204.1,0.1c21.5,0,38.7,9.2,52,25.9c9.9,12.4,14.5,26.7,14.5,42.5
			c0,57.3,0,114.7,0,172c0,7.9,1,16-4.1,22.9c-0.2,0.3-0.2,0.8-0.4,1.2c-2.2,4.3-3.9,8.9-6.7,12.7c-16,22.2-37.5,32.5-65,29.6
			c-1-0.1-2.1-0.2-3.1-0.2c-10.2,0.3-20.4,0.9-30.6,0.9c-68.2,0.1-136.5,0.1-204.7,0c-8.3,0-16.7-0.7-25-1c-1.9-0.1-3.8,0.1-5.6,0.2
			c-3.7,0.2-7.5,0.6-11.2,0.8c-18.8,0.8-37.5-1.5-56.4-0.2c-15,1.1-30.1,0.2-45.2,0.2c-2.7,0-5.5-0.1-8.1-0.4
			c-11.6-1.6-22.4,0.4-32.4,6.6c-9.2,5.7-14.3,13.9-15,24.7c-0.4,5.4-0.5,10.9-0.5,16.3c0.1,8,0.9,16-0.6,24.1
			c-0.9,4.6-0.2,9.6-0.2,14.4c0,31.4-0.1,62.8,0,94.2c0,7.1-2.7,13.2-6.2,18.7c-5.1,8-15.8,10.6-25.8,7.8
			c-8.2-2.3-15.6-6.5-22.1-11.6c-11.6-9.2-22.8-19-34.1-28.7c-10.5-9-20.8-18.1-31.3-27.1c-11.2-9.4-22.6-18.6-33.8-28
			c-17.9-15.1-35.6-30.4-53.4-45.5c-22.7-19.2-45.5-38.1-68.2-57.3c-24.9-21-49.8-42.1-74.7-63.2c-21.9-18.5-43.6-37.1-65.6-55.5
			c-8.2-6.8-14.5-15-19.5-24.2c-0.7-1.3-0.9-3.2-0.5-4.6c2.5-10.2,7.9-18.9,15.5-26.1c15.2-14.4,30.6-28.5,45.8-42.9
			c30.2-28.4,60.3-56.8,90.4-85.3c20.9-19.7,41.8-39.3,62.6-58.9c30.1-28.4,60.3-56.8,90.4-85.3c18.4-17.4,36.7-34.9,55.1-52.2
			c9.6-9,19.3-18,29-26.9c4.5-4.1,9.8-7.1,15.8-8.7c14.6-3.9,26.5,3.7,28.9,18.7c0.9,6,1.4,12.1,1.4,18.1
			c0.1,46.9,0.1,93.8,0.1,140.6c0,2.3-0.1,4.6,0.1,6.9c1.4,13.4,8.6,27.2,25.4,31.5c5.2,1.3,10.7,2,16.1,2
			C632.3,427.5,699.9,427.5,767.5,427.5C767.5,427.5,767.5,427.5,767.5,427.5z M801.2,504.4c11,0.2,17.1-5.7,22.3-13.4
			c3.4-5,3.6-10.7,0.6-16.1c-4.9-9-11.5-14.9-22.7-14.9c-68.2,0.2-136.4,0.2-204.7-0.1c-12.1-0.1-22.3,9.5-24.1,22
			c-0.7,4.9,2.2,9.3,5.2,13.1c4.8,6.3,10.9,9.5,19.4,9.4c34.1-0.4,68.2-0.2,102.3-0.2C733.4,504.2,767.3,503.8,801.2,504.4z
			 M945,504.1c9.8-0.1,16.2-5.7,19.8-14c3.8-8.9,2.8-15-5.2-23.3c-4.3-4.4-9.7-7-16.3-6.8c-11.1,0.2-22.2,0.2-33.3,0
			c-11.9-0.2-23.8,11-22.7,24c0.9,9.9,9.9,19.6,20,20c6.5,0.3,13,0.1,19.4,0.1c0,0,0,0,0,0C932.9,504.2,939,504.2,945,504.1z"/>
		<path d="M597.2,504.3c-8.5,0.1-14.6-3.1-19.4-9.4c-2.9-3.8-5.9-8.2-5.2-13.1c1.9-12.4,12-22,24.1-22c68.2,0.3,136.4,0.2,204.7,0.1
			c11.2,0,17.8,5.9,22.7,14.9c3,5.4,2.8,11.1-0.6,16.1c-5.3,7.8-11.4,13.6-22.3,13.4c-33.9-0.6-67.8-0.2-101.7-0.2
			C665.4,504.2,631.3,504,597.2,504.3z M597.5,462.5c-6,0-11.1,1.4-15.4,5.7c-5.7,5.7-7.8,12.3-5.1,20c2.9,8.1,8.8,13,17.3,13.3
			c12.7,0.5,25.5,0.1,38.3,0.1c4.4,0,8.7,0.1,13.1,0.1c51.9,0,103.8-0.1,155.7,0.1c8.3,0,17.1-4.5,20.6-13.5
			c2.8-7.1,0.4-15.6-6-20.8c-4.4-3.6-9.3-5.1-15.1-5c-33.9,0.2-67.8,0.1-101.7,0.1C665.3,462.6,631.4,462.6,597.5,462.5z"/>
		<path d="M926.9,504.1c-6.5,0-13,0.2-19.4-0.1c-10.1-0.4-19.1-10.1-20-20c-1.2-13,10.7-24.2,22.7-24c11.1,0.2,22.2,0.2,33.3,0
			c6.6-0.1,12,2.4,16.3,6.8c8,8.3,9,14.5,5.2,23.3c-3.6,8.3-10,13.9-19.8,14C939,504.2,932.9,504.2,926.9,504.1
			C926.9,504.1,926.9,504.1,926.9,504.1z M944.8,501.7c14.2-0.7,23.4-14.6,17.6-27.2c-3.4-7.3-9.2-11.9-17.7-11.9
			c-11.7-0.1-23.4-0.1-35.2,0c-11,0.1-19.5,8.8-19.7,19.6c-0.1,10.2,8.2,18.9,19.1,19.5c6.1,0.3,12.1,0.1,18.2,0.1
			C933.1,501.7,938.9,501.9,944.8,501.7z"/>
		
			<rect x="549.5" y="451" transform="matrix(-1 -1.224647e-16 1.224647e-16 -1 1531.8667 989.9966)" class="st58" width="432.8" height="88"/>
		<path class="st19" d="M699.2,462.6c-33.9,0-67.8,0.1-101.7-0.1c-6,0-11.1,1.4-15.4,5.7c-5.7,5.7-7.8,12.3-5.1,20
			c2.9,8.1,8.8,13,17.3,13.3c12.7,0.5,25.5,0.1,38.3,0.1c4.4,0,8.7,0.1,13.1,0.1c51.9,0,103.8-0.1,155.7,0.1
			c8.3,0,17.1-4.5,20.6-13.5c2.8-7.1,0.4-15.6-6-20.8c-4.4-3.6-9.3-5.1-15.1-5C767,462.6,733.1,462.6,699.2,462.6z"/>
		<path class="st19" d="M927.2,501.7c5.9,0,11.7,0.2,17.6,0c14.2-0.7,23.4-14.6,17.6-27.2c-3.4-7.3-9.2-11.9-17.7-11.9
			c-11.7-0.1-23.4-0.1-35.2,0c-11,0.1-19.5,8.8-19.7,19.6c-0.1,10.2,8.2,18.9,19.1,19.5C915.1,502,921.1,501.7,927.2,501.7z"/>
	</g>
</g>
<g id="Layer_3">
</g>
<g id="Layer_4">
</g>
</svg>
