<?xml version="1.0" encoding="utf-8"?>
<!-- Generator: Adobe Illustrator 26.0.1, SVG Export Plug-In . SVG Version: 6.00 Build 0)  -->
<svg version="1.1" xmlns="http://www.w3.org/2000/svg" xmlns:xlink="http://www.w3.org/1999/xlink" x="0px" y="0px"
	 viewBox="0 0 1132.9 1188.1" style="enable-background:new 0 0 1132.9 1188.1;" xml:space="preserve">
<style type="text/css">
	.st0{fill:#F9F9F9;}
	.st1{opacity:0.83;fill:url(#SVGID_1_);}
	.st2{opacity:0.53;fill:url(#SVGID_00000054980713008189726450000008835827266263254690_);}
	.st3{fill:url(#SVGID_00000049937779675548346770000004254831902788771726_);}
	.st4{fill:url(#SVGID_00000088113134452717829440000012879378263169131700_);}
	.st5{fill:url(#SVGID_00000077288318941433454250000018285701996964747441_);}
	.st6{fill:url(#SVGID_00000157990384526065723720000008743907337513858449_);}
	
		.st7{fill:none;stroke:url(#SVGID_00000005234502019803999650000006656336075223503281_);stroke-width:6;stroke-linecap:round;stroke-linejoin:round;stroke-miterlimit:10;}
	.st8{opacity:0.83;fill:url(#SVGID_00000047048089435801814440000003460525460792513432_);}
	.st9{opacity:0.53;fill:url(#SVGID_00000179637729543705840470000001373785620611879866_);}
	.st10{opacity:0.5;fill:#24B5D9;}
	.st11{fill:#FFFFFF;}
	.st12{fill:#1257DD;}
	.st13{fill:none;stroke:#FFFFFF;stroke-width:5;stroke-linecap:round;stroke-linejoin:round;stroke-miterlimit:10;}
	.st14{fill:url(#SVGID_00000029740286466650495830000007107514238180280713_);}
	.st15{fill:url(#SVGID_00000072996647667330681240000008070714935162961315_);}
	.st16{fill:url(#SVGID_00000141457285242188832120000002016983107584826008_);}
	.st17{fill:url(#SVGID_00000033342352008915467640000004404690466997907332_);}
	
		.st18{fill:none;stroke:url(#SVGID_00000026158539181672478770000009638716389864611980_);stroke-width:6;stroke-linecap:round;stroke-linejoin:round;stroke-miterlimit:10;}
	.st19{opacity:0.83;fill:url(#SVGID_00000023277610547054642660000003257746728014674599_);}
	.st20{opacity:0.53;fill:url(#SVGID_00000173132648771138664090000012642959512811773872_);}
	.st21{opacity:0.5;}
	.st22{fill:#24B5D9;}
	.st23{font-family:'Montserrat-Bold';}
	.st24{font-size:134.4279px;}
</style>
<g id="Layer_2_00000139271044324754737130000002424614848771141519_">
	<rect x="-3071.1" y="-310" class="st0" width="1158" height="2465"/>
	<g>
		<linearGradient id="SVGID_1_" gradientUnits="userSpaceOnUse" x1="-2494.6392" y1="-407.0267" x2="-2488.1553" y2="2413.4236">
			<stop  offset="0" style="stop-color:#13C3AF"/>
			<stop  offset="0.1585" style="stop-color:#13BAB3"/>
			<stop  offset="0.4117" style="stop-color:#13A3BD"/>
			<stop  offset="0.7261" style="stop-color:#127ECD"/>
			<stop  offset="1" style="stop-color:#1257DD"/>
		</linearGradient>
		<path class="st1" d="M-3053,56.2c0,0,195-518.1,619.2-100.5c0,0,267.9,174.7,504.2,12.9v2172.9H-3053V56.2z"/>
		
			<linearGradient id="SVGID_00000136400949315308427140000003397809222789920424_" gradientUnits="userSpaceOnUse" x1="-2494.6565" y1="-502.1725" x2="-2487.9309" y2="2423.5168">
			<stop  offset="0" style="stop-color:#13C3AF"/>
			<stop  offset="0.1585" style="stop-color:#13BAB3"/>
			<stop  offset="0.4117" style="stop-color:#13A3BD"/>
			<stop  offset="0.7261" style="stop-color:#127ECD"/>
			<stop  offset="1" style="stop-color:#1257DD"/>
		</linearGradient>
		<path style="opacity:0.53;fill:url(#SVGID_00000136400949315308427140000003397809222789920424_);" d="M-3053-294
			c0,0,274,618.5,689.3,127.5c0,0,131.8-162.2,434.1-40v2348H-3053V-294z"/>
	</g>
	<g>
		<g>
			
				<linearGradient id="SVGID_00000054253740679447912330000006505983490359321990_" gradientUnits="userSpaceOnUse" x1="-2740.1255" y1="-11.8658" x2="-2493.012" y2="-119.4241" gradientTransform="matrix(1 0 0 1 4.136139e-03 15.2358)">
				<stop  offset="0" style="stop-color:#8E56F5"/>
				<stop  offset="0.3062" style="stop-color:#7A51F2"/>
				<stop  offset="0.9301" style="stop-color:#4744EB"/>
				<stop  offset="0.9968" style="stop-color:#4142EA"/>
			</linearGradient>
			<path style="fill:url(#SVGID_00000054253740679447912330000006505983490359321990_);" d="M-2666.7-45.4c0,0-12.4-58.8,83-59.7
				c87.3-0.8,74.3,49.1,268.7-24.4C-2315-129.5-2588.2,8.7-2666.7-45.4z"/>
			<g>
				
					<linearGradient id="SVGID_00000149372332923321102500000016328113461579352987_" gradientUnits="userSpaceOnUse" x1="-2490.2009" y1="-167.7247" x2="-2493.354" y2="131.81" gradientTransform="matrix(1 0 0 1 4.136139e-03 15.2358)">
					<stop  offset="0" style="stop-color:#13C3AF"/>
					<stop  offset="0.1585" style="stop-color:#13BAB3"/>
					<stop  offset="0.4117" style="stop-color:#13A3BD"/>
					<stop  offset="0.7261" style="stop-color:#127ECD"/>
					<stop  offset="1" style="stop-color:#1257DD"/>
				</linearGradient>
				<path style="fill:url(#SVGID_00000149372332923321102500000016328113461579352987_);" d="M-2535.3,152.5
					c69.2-6.8,92.7,46.2,157.7,58.2c1.4-1,2.3-2.5,2.6-4.3l60-336c-101.7-24.9-142.9,42.9-221.9,74.6
					c-78.9,31.7-129.9,9.5-129.9,9.5l46.5,252c0.1,0.8,0.4,1.5,0.8,2.2C-2613.1,192.3-2593.3,158.2-2535.3,152.5z"/>
				
					<linearGradient id="SVGID_00000162341548005767199190000011534127732717410493_" gradientUnits="userSpaceOnUse" x1="-2411.009" y1="-196.925" x2="-2378.428" y2="-173.8031" gradientTransform="matrix(1 0 0 1 4.136139e-03 15.2358)">
					<stop  offset="0" style="stop-color:#13C3AF"/>
					<stop  offset="0.1068" style="stop-color:#13BAB3"/>
					<stop  offset="0.2775" style="stop-color:#13A3BD"/>
					<stop  offset="0.4894" style="stop-color:#127ECD"/>
					<stop  offset="0.674" style="stop-color:#1257DD"/>
				</linearGradient>
				<path style="fill:url(#SVGID_00000162341548005767199190000011534127732717410493_);" d="M-2396.1-159.5
					c6.4,0,11.6-5.2,11.6-11.6s-5.2-11.6-11.6-11.6c-6.4,0-11.6,5.2-11.6,11.6S-2402.5-159.5-2396.1-159.5z"/>
				
					<linearGradient id="SVGID_00000046330170253403139520000016224702012827276984_" gradientUnits="userSpaceOnUse" x1="-2492.8945" y1="107.5509" x2="-2499.2007" y2="205.2938" gradientTransform="matrix(1 0 0 1 4.136139e-03 15.2358)">
					<stop  offset="0" style="stop-color:#13C3AF"/>
					<stop  offset="0.1585" style="stop-color:#13BAB3"/>
					<stop  offset="0.4117" style="stop-color:#13A3BD"/>
					<stop  offset="0.7261" style="stop-color:#127ECD"/>
					<stop  offset="1" style="stop-color:#1257DD"/>
				</linearGradient>
				<path style="fill:url(#SVGID_00000046330170253403139520000016224702012827276984_);" d="M-2615.6,211.9
					c20.9,6.3,120.8,32.7,235.8-0.1c0.8-0.2,1.5-0.6,2.1-1.1c-65-12-89.2-66.8-158.5-60c-58,5.7-77,41.6-83.3,58.1
					C-2618.5,210.3-2617.2,211.4-2615.6,211.9z"/>
			</g>
		</g>
		
			<linearGradient id="SVGID_00000003817689078478231900000016148255437240419224_" gradientUnits="userSpaceOnUse" x1="-2774.8022" y1="53.1111" x2="-2207.4905" y2="53.1111">
			<stop  offset="0" style="stop-color:#8E56F5"/>
			<stop  offset="0.3062" style="stop-color:#7A51F2"/>
			<stop  offset="0.9301" style="stop-color:#4744EB"/>
			<stop  offset="0.9968" style="stop-color:#4142EA"/>
		</linearGradient>
		
			<polyline style="fill:none;stroke:url(#SVGID_00000003817689078478231900000016148255437240419224_);stroke-width:6;stroke-linecap:round;stroke-linejoin:round;stroke-miterlimit:10;" points="
			-2771.8,-176.4 -2771.8,282.6 -2210.5,282.6 -2210.5,-176.4 		"/>
		
			<text transform="matrix(1 0 0 1 -2773.6458 460.2542)" style="fill:#0B0B0B; font-family:'Montserrat-SemiBold'; font-size:104.1592px;">ITX-TANKY</text>
	</g>
	<g>
		
			<text transform="matrix(1 0 0 1 -2759.9734 998.9689)" style="fill:#0B0B0B; font-family:'Montserrat-Regular'; font-size:253.5812px;">45%</text>
	</g>
	<g>
		<g>
			
				<text transform="matrix(1 0 0 1 -2700.1499 1144.1915)" style="fill:#0B0B0B; font-family:'Montserrat-Regular'; font-size:35.6866px;">Life Time:</text>
			
				<text transform="matrix(1 0 0 1 -2415.6167 1144.1915)" style="fill:#0B0B0B; font-family:'Montserrat-Regular'; font-size:35.6866px;">2 Days</text>
		</g>
		<g>
			
				<text transform="matrix(1 0 0 1 -2702.2065 1214.1185)" style="fill:#0B0B0B; font-family:'Montserrat-Regular'; font-size:35.6866px;">Total Vol:</text>
			
				<text transform="matrix(1 0 0 1 -2415.395 1214.1185)" style="fill:#0B0B0B; font-family:'Montserrat-Regular'; font-size:35.6866px;">20 Liter</text>
		</g>
		<g>
			<text transform="matrix(1 0 0 1 -2697.1021 1262.6335)"><tspan x="0" y="0" style="fill:#0B0B0B; font-family:'Montserrat-Regular'; font-size:35.6866px;">Remaining</tspan><tspan x="0" y="42.8" style="fill:#0B0B0B; font-family:'Montserrat-Regular'; font-size:35.6866px;">Vol:</tspan></text>
			
				<text transform="matrix(1 0 0 1 -2415.606 1284.0457)" style="fill:#0B0B0B; font-family:'Montserrat-Regular'; font-size:35.6866px;">10 Liter</text>
		</g>
		<g>
			
				<text transform="matrix(1 0 0 1 -2697.6567 1353.9728)" style="fill:#0B0B0B; font-family:'Montserrat-Regular'; font-size:35.6866px;">Pump</text>
			
				<text transform="matrix(1 0 0 1 -2415.4009 1353.9728)" style="fill:#0B0B0B; font-family:'Montserrat-Regular'; font-size:35.6866px;">Off</text>
		</g>
	</g>
	<g>
		<text transform="matrix(1 0 0 1 -4014.7363 262.1976)"><tspan x="0" y="0" class="st11" style="font-family:'Montserrat-SemiBold'; font-size:125.4721px;">ITX-</tspan><tspan x="250.8" y="0" style="fill:#91C9E2; font-family:'Montserrat-SemiBold'; font-size:125.4721px;">TANKY</tspan></text>
	</g>
</g>
<g id="Layer_1_00000135685765248743004460000000048367615678908855_">
	<rect x="-4264.6" y="-309" class="st0" width="1152" height="2465"/>
	<g>
		
			<linearGradient id="SVGID_00000007398505101751250310000007817403675566866357_" gradientUnits="userSpaceOnUse" x1="-3689.2266" y1="664.1978" x2="-3685.4666" y2="2299.7852">
			<stop  offset="0" style="stop-color:#13C3AF"/>
			<stop  offset="0.1585" style="stop-color:#13BAB3"/>
			<stop  offset="0.4117" style="stop-color:#13A3BD"/>
			<stop  offset="0.7261" style="stop-color:#127ECD"/>
			<stop  offset="1" style="stop-color:#1257DD"/>
		</linearGradient>
		<path style="opacity:0.83;fill:url(#SVGID_00000007398505101751250310000007817403675566866357_);" d="M-4249,933
			c0,0,195-300.3,619.2-58.2c0,0,267.9,101.2,504.2,7.5v1259.4H-4249V933z"/>
		
			<linearGradient id="SVGID_00000164477321324861853220000018074183153952013710_" gradientUnits="userSpaceOnUse" x1="-3689.2375" y1="608.7306" x2="-3685.3364" y2="2305.6692">
			<stop  offset="0" style="stop-color:#13C3AF"/>
			<stop  offset="0.1585" style="stop-color:#13BAB3"/>
			<stop  offset="0.4117" style="stop-color:#13A3BD"/>
			<stop  offset="0.7261" style="stop-color:#127ECD"/>
			<stop  offset="1" style="stop-color:#1257DD"/>
		</linearGradient>
		<path style="opacity:0.53;fill:url(#SVGID_00000164477321324861853220000018074183153952013710_);" d="M-4249,730
			c0,0,274,358.4,689.3,73.9c0,0,131.8-94,434.1-23.2v1360.8H-4249V730z"/>
	</g>
	<g>
		<g>
			
				<text transform="matrix(1 0 0 1 -3896.1501 1144.1915)" style="fill:#0B0B0B; font-family:'Montserrat-Regular'; font-size:35.6866px;">Life Time:</text>
			
				<text transform="matrix(1 0 0 1 -3611.6169 1144.1915)" style="fill:#0B0B0B; font-family:'Montserrat-Regular'; font-size:35.6866px;">2 Days</text>
		</g>
		<g>
			
				<text transform="matrix(1 0 0 1 -3898.2068 1214.1185)" style="fill:#0B0B0B; font-family:'Montserrat-Regular'; font-size:35.6866px;">Total Vol:</text>
			
				<text transform="matrix(1 0 0 1 -3611.3953 1214.1185)" style="fill:#0B0B0B; font-family:'Montserrat-Regular'; font-size:35.6866px;">20 Liter</text>
		</g>
		<g>
			<text transform="matrix(1 0 0 1 -3893.1023 1262.6335)"><tspan x="0" y="0" style="fill:#0B0B0B; font-family:'Montserrat-Regular'; font-size:35.6866px;">Remaining</tspan><tspan x="0" y="42.8" style="fill:#0B0B0B; font-family:'Montserrat-Regular'; font-size:35.6866px;">Vol:</tspan></text>
			
				<text transform="matrix(1 0 0 1 -3611.6062 1284.0457)" style="fill:#0B0B0B; font-family:'Montserrat-Regular'; font-size:35.6866px;">10 Liter</text>
		</g>
		<g>
			
				<text transform="matrix(1 0 0 1 -3893.657 1353.9728)" style="fill:#0B0B0B; font-family:'Montserrat-Regular'; font-size:35.6866px;">Pump</text>
			
				<text transform="matrix(1 0 0 1 -3611.4011 1353.9728)" style="fill:#0B0B0B; font-family:'Montserrat-Regular'; font-size:35.6866px;">Off</text>
		</g>
	</g>
	<g>
		
			<text transform="matrix(1 0 0 1 -4043.8557 1582.14)" style="fill:#0B0B0B; font-family:'Montserrat-Medium'; font-size:98.4884px;">INFORMATIVE</text>
	</g>
	
		<text transform="matrix(1 0 0 1 -3809.7451 2076.0481)" style="fill:#FCFCFC; font-family:'Montserrat-Medium'; font-size:37.2617px;">Press Button</text>
	<g>
		<g>
			<circle class="st10" cx="-3688.1" cy="1845.3" r="154.5"/>
			<circle class="st11" cx="-3688.1" cy="1845.3" r="127.3"/>
		</g>
		<g>
			<path class="st12" d="M-3691,1781.1c-13.7,17.9-64.7,82.4-27,118.6c16.2,15.5,40.7,15,58.3,1.2c22-17.3,25.5-48.6-24.5-119.6
				C-3685.9,1778.9-3689.3,1778.8-3691,1781.1z"/>
			<path class="st13" d="M-3715.6,1857c0,0-2.6,34.5,16.6,38.3"/>
		</g>
	</g>
	<g>
		<g>
			
				<linearGradient id="SVGID_00000128458234714735469970000004647264342362745258_" gradientUnits="userSpaceOnUse" x1="-3935.2039" y1="-15.8658" x2="-3688.0906" y2="-123.4241" gradientTransform="matrix(1 0 0 1 4.136139e-03 15.2358)">
				<stop  offset="0" style="stop-color:#8E56F5"/>
				<stop  offset="0.3062" style="stop-color:#7A51F2"/>
				<stop  offset="0.9301" style="stop-color:#4744EB"/>
				<stop  offset="0.9968" style="stop-color:#4142EA"/>
			</linearGradient>
			<path style="fill:url(#SVGID_00000128458234714735469970000004647264342362745258_);" d="M-3861.8-49.4c0,0-12.4-58.8,83-59.7
				c87.3-0.8,74.3,49.1,268.7-24.4C-3510.1-133.5-3783.2,4.7-3861.8-49.4z"/>
			<g>
				
					<linearGradient id="SVGID_00000049200643671818033590000015793533451015580602_" gradientUnits="userSpaceOnUse" x1="-3685.2793" y1="-171.7247" x2="-3688.4324" y2="127.81" gradientTransform="matrix(1 0 0 1 4.136139e-03 15.2358)">
					<stop  offset="0" style="stop-color:#13C3AF"/>
					<stop  offset="0.1585" style="stop-color:#13BAB3"/>
					<stop  offset="0.4117" style="stop-color:#13A3BD"/>
					<stop  offset="0.7261" style="stop-color:#127ECD"/>
					<stop  offset="1" style="stop-color:#1257DD"/>
				</linearGradient>
				<path style="fill:url(#SVGID_00000049200643671818033590000015793533451015580602_);" d="M-3730.4,148.5
					c69.2-6.8,92.7,46.2,157.7,58.2c1.4-1,2.3-2.5,2.6-4.3l60-336c-101.7-24.9-142.9,42.9-221.9,74.6
					c-78.9,31.7-129.9,9.5-129.9,9.5l46.5,252c0.1,0.8,0.4,1.5,0.8,2.2C-3808.2,188.3-3788.4,154.2-3730.4,148.5z"/>
				
					<linearGradient id="SVGID_00000131352017614452165530000000963827703658207628_" gradientUnits="userSpaceOnUse" x1="-3606.0874" y1="-200.925" x2="-3573.5063" y2="-177.8031" gradientTransform="matrix(1 0 0 1 4.136139e-03 15.2358)">
					<stop  offset="0" style="stop-color:#13C3AF"/>
					<stop  offset="0.1068" style="stop-color:#13BAB3"/>
					<stop  offset="0.2775" style="stop-color:#13A3BD"/>
					<stop  offset="0.4894" style="stop-color:#127ECD"/>
					<stop  offset="0.674" style="stop-color:#1257DD"/>
				</linearGradient>
				<path style="fill:url(#SVGID_00000131352017614452165530000000963827703658207628_);" d="M-3591.2-163.5
					c6.4,0,11.6-5.2,11.6-11.6s-5.2-11.6-11.6-11.6c-6.4,0-11.6,5.2-11.6,11.6S-3597.6-163.5-3591.2-163.5z"/>
				
					<linearGradient id="SVGID_00000134932386864644124210000013374597150267031941_" gradientUnits="userSpaceOnUse" x1="-3687.9729" y1="103.5509" x2="-3694.2791" y2="201.2938" gradientTransform="matrix(1 0 0 1 4.136139e-03 15.2358)">
					<stop  offset="0" style="stop-color:#13C3AF"/>
					<stop  offset="0.1585" style="stop-color:#13BAB3"/>
					<stop  offset="0.4117" style="stop-color:#13A3BD"/>
					<stop  offset="0.7261" style="stop-color:#127ECD"/>
					<stop  offset="1" style="stop-color:#1257DD"/>
				</linearGradient>
				<path style="fill:url(#SVGID_00000134932386864644124210000013374597150267031941_);" d="M-3810.7,207.9
					c20.9,6.3,120.8,32.7,235.8-0.1c0.8-0.2,1.5-0.6,2.1-1.1c-65-12-89.2-66.8-158.5-60c-58,5.7-77,41.6-83.3,58.1
					C-3813.6,206.3-3812.3,207.4-3810.7,207.9z"/>
			</g>
		</g>
		
			<linearGradient id="SVGID_00000022534366838974574120000012908999801134001334_" gradientUnits="userSpaceOnUse" x1="-3969.8809" y1="49.1111" x2="-3402.5688" y2="49.1111">
			<stop  offset="0" style="stop-color:#8E56F5"/>
			<stop  offset="0.3062" style="stop-color:#7A51F2"/>
			<stop  offset="0.9301" style="stop-color:#4744EB"/>
			<stop  offset="0.9968" style="stop-color:#4142EA"/>
		</linearGradient>
		
			<polyline style="fill:none;stroke:url(#SVGID_00000022534366838974574120000012908999801134001334_);stroke-width:6;stroke-linecap:round;stroke-linejoin:round;stroke-miterlimit:10;" points="
			-3966.9,-180.4 -3966.9,278.6 -3405.6,278.6 -3405.6,-180.4 		"/>
		
			<text transform="matrix(1 0 0 1 -3968.7241 456.2542)" style="fill:#0B0B0B; font-family:'Montserrat-SemiBold'; font-size:104.1592px;">ITX-TANKY</text>
	</g>
	
		<text transform="matrix(1 0 0 1 -3955.9734 998.9689)" style="fill:#0B0B0B; font-family:'Montserrat-Regular'; font-size:253.5812px;">45%</text>
</g>
<g id="Layer_3">
	
		<linearGradient id="SVGID_00000035522774891907551800000005167085348600297100_" gradientUnits="userSpaceOnUse" x1="-1278.8998" y1="912.1276" x2="-1275.7701" y2="2273.4841">
		<stop  offset="0" style="stop-color:#13C3AF"/>
		<stop  offset="0.1585" style="stop-color:#13BAB3"/>
		<stop  offset="0.4117" style="stop-color:#13A3BD"/>
		<stop  offset="0.7261" style="stop-color:#127ECD"/>
		<stop  offset="1" style="stop-color:#1257DD"/>
	</linearGradient>
	<path style="opacity:0.83;fill:url(#SVGID_00000035522774891907551800000005167085348600297100_);" d="M-1839,1135.9
		c0,0,195-249.9,619.2-48.5c0,0,267.9,84.2,504.2,6.2v1047.9H-1839V1135.9z"/>
</g>
<g id="Layer_4">
	
		<linearGradient id="SVGID_00000034788745969936049370000011367336112347836058_" gradientUnits="userSpaceOnUse" x1="-1278.9091" y1="865.8439" x2="-1275.6619" y2="2278.3938">
		<stop  offset="0" style="stop-color:#13C3AF"/>
		<stop  offset="0.1585" style="stop-color:#13BAB3"/>
		<stop  offset="0.4117" style="stop-color:#13A3BD"/>
		<stop  offset="0.7261" style="stop-color:#127ECD"/>
		<stop  offset="1" style="stop-color:#1257DD"/>
	</linearGradient>
	<path style="opacity:0.53;fill:url(#SVGID_00000034788745969936049370000011367336112347836058_);" d="M-1839,967
		c0,0,274,298.3,689.3,61.5c0,0,131.8-78.2,434.1-19.3v1132.4H-1839V967z"/>
	<g>
		<g>
			<g>
				<g>
					
						<image style="overflow:visible;" width="469" height="177" xlink:href="F2F0DB45.png"  transform="matrix(1 0 0 1 -2726.5684 1509.0375)">
					</image>
				</g>
				<g>
					<path class="st11" d="M-2316.8,1637.7h-350.5c-6.6,0-12-5.4-12-12v-55.6c0-6.6,5.4-12,12-12h350.5c6.6,0,12,5.4,12,12v55.6
						C-2304.8,1632.3-2310.2,1637.7-2316.8,1637.7z"/>
				</g>
			</g>
			<text transform="matrix(1 0 0 1 -2544.5547 1612.5033)" class="st12 st23" style="font-size:49.4688px;">EDIT</text>
		</g>
		<g>
			<g>
				<g>
					<g>
						
							<image style="overflow:visible;" width="469" height="178" xlink:href="F2F0DB4B.png"  transform="matrix(1 0 0 1 -2438.5684 1778.0375)">
						</image>
					</g>
					<g>
						<path class="st11" d="M-2028.4,1906.8h-350.5c-6.6,0-12-5.4-12-12v-55.6c0-6.6,5.4-12,12-12h350.5c6.6,0,12,5.4,12,12v55.6
							C-2016.4,1901.4-2021.8,1906.8-2028.4,1906.8z"/>
					</g>
				</g>
				<text transform="matrix(1 0 0 1 -2256.1719 1881.5746)" class="st12 st23" style="font-size:49.4688px;">OFF</text>
			</g>
			<g>
				<g>
					<g>
						
							<image style="overflow:visible;" width="469" height="178" xlink:href="F2F0DB4C.png"  transform="matrix(1 0 0 1 -3014.5684 1768.0375)">
						</image>
					</g>
					<g>
						<path class="st11" d="M-2605.2,1896.8h-350.5c-6.6,0-12-5.4-12-12v-55.6c0-6.6,5.4-12,12-12h350.5c6.6,0,12,5.4,12,12v55.6
							C-2593.2,1891.4-2598.6,1896.8-2605.2,1896.8z"/>
					</g>
				</g>
				<text transform="matrix(1 0 0 1 -2821.3118 1871.6449)" class="st12 st23" style="font-size:49.4688px;">ON</text>
			</g>
			<g>
				<g>
					<circle class="st10" cx="-2475" cy="1855.4" r="154.5"/>
					<circle class="st11" cx="-2475" cy="1855.4" r="127.3"/>
				</g>
				<g>
					<path class="st12" d="M-2477.9,1791.1c-13.7,17.9-64.7,82.4-27,118.6c16.2,15.5,40.7,15,58.3,1.2c22-17.3,25.5-48.6-24.5-119.6
						C-2472.8,1788.9-2476.2,1788.8-2477.9,1791.1z"/>
					<path class="st13" d="M-2502.5,1867c0,0-2.6,34.5,16.6,38.3"/>
				</g>
			</g>
		</g>
	</g>
	<g class="st21">
		<path class="st22" d="M1089.6,733H43.3c-6.6,0-12-5.4-12-12V467c0-6.6,5.4-12,12-12h1046.3c6.6,0,12,5.4,12,12v254
			C1101.6,727.6,1096.2,733,1089.6,733z"/>
	</g>
	<g>
		<path class="st11" d="M1063.3,702.2H69.6c-6.6,0-12-5.4-12-12V497.9c0-6.6,5.4-12,12-12h993.7c6.6,0,12,5.4,12,12v192.3
			C1075.3,696.8,1069.9,702.2,1063.3,702.2z"/>
	</g>
	<text transform="matrix(1 0 0 1 423.8046 633.7601)" class="st12 st23 st24">OFF</text>
</g>
</svg>
