<?xml version="1.0" encoding="utf-8"?>
<!-- Generator: Adobe Illustrator 26.0.1, SVG Export Plug-In . SVG Version: 6.00 Build 0)  -->
<svg version="1.1" xmlns="http://www.w3.org/2000/svg" xmlns:xlink="http://www.w3.org/1999/xlink" x="0px" y="0px"
	 viewBox="0 0 879.9 922.7" style="enable-background:new 0 0 879.9 922.7;" xml:space="preserve">
<style type="text/css">
	.st0{fill:#F9F9F9;}
	.st1{opacity:0.83;fill:url(#SVGID_1_);}
	.st2{opacity:0.53;fill:url(#SVGID_00000012449887674953324230000011039345693662575028_);}
	.st3{fill:url(#SVGID_00000124135424985384904910000000444703119151962803_);}
	.st4{fill:url(#SVGID_00000127030664176643058040000002695116685488043150_);}
	.st5{fill:url(#SVGID_00000097473220453109962520000018188533200045504935_);}
	.st6{fill:url(#SVGID_00000082346960481009070810000016880765575681611657_);}
	
		.st7{fill:none;stroke:url(#SVGID_00000080195873831136462400000015909040159914360235_);stroke-width:6;stroke-linecap:round;stroke-linejoin:round;stroke-miterlimit:10;}
	.st8{opacity:0.83;fill:url(#SVGID_00000021120745855786052770000010374845175185255063_);}
	.st9{opacity:0.53;fill:url(#SVGID_00000075845078592590958350000002422420395899857057_);}
	.st10{opacity:0.51;fill:#3CCDE1;stroke:#11C0D9;stroke-width:6;stroke-miterlimit:10;}
	.st11{opacity:0.5;fill:#24B5D9;}
	.st12{fill:#FFFFFF;}
	.st13{fill:#1257DD;}
	.st14{fill:none;stroke:#FFFFFF;stroke-width:5;stroke-linecap:round;stroke-linejoin:round;stroke-miterlimit:10;}
	.st15{fill:url(#SVGID_00000085249061545710160810000007985124977718763961_);}
	.st16{fill:url(#SVGID_00000128465238620341463010000016398060687688262806_);}
	.st17{fill:url(#SVGID_00000029003814250467404910000000519904306884121518_);}
	.st18{fill:url(#SVGID_00000096758227694546619770000010348353992904223154_);}
	
		.st19{fill:none;stroke:url(#SVGID_00000112598878456888560730000002519217048616845492_);stroke-width:6;stroke-linecap:round;stroke-linejoin:round;stroke-miterlimit:10;}
	.st20{opacity:0.83;fill:url(#SVGID_00000100340899552681993760000017216811603340843447_);}
	.st21{opacity:0.53;fill:url(#SVGID_00000034777598086539410590000013851927511870420383_);}
</style>
<g id="Layer_2_00000139271044324754737130000002424614848771141519_">
	<rect x="-2570.6" y="-442.6" class="st0" width="1158" height="2465"/>
	<g>
		<linearGradient id="SVGID_1_" gradientUnits="userSpaceOnUse" x1="-1994.1421" y1="-539.6951" x2="-1987.6583" y2="2280.7554">
			<stop  offset="0" style="stop-color:#13C3AF"/>
			<stop  offset="0.1585" style="stop-color:#13BAB3"/>
			<stop  offset="0.4117" style="stop-color:#13A3BD"/>
			<stop  offset="0.7261" style="stop-color:#127ECD"/>
			<stop  offset="1" style="stop-color:#1257DD"/>
		</linearGradient>
		<path class="st1" d="M-2552.5-76.4c0,0,195-518.1,619.2-100.5c0,0,267.9,174.7,504.2,12.9V2009h-1123.4V-76.4z"/>
		
			<linearGradient id="SVGID_00000094588168444067369770000012891018036030220730_" gradientUnits="userSpaceOnUse" x1="-1994.1597" y1="-634.8408" x2="-1987.4338" y2="2290.8484">
			<stop  offset="0" style="stop-color:#13C3AF"/>
			<stop  offset="0.1585" style="stop-color:#13BAB3"/>
			<stop  offset="0.4117" style="stop-color:#13A3BD"/>
			<stop  offset="0.7261" style="stop-color:#127ECD"/>
			<stop  offset="1" style="stop-color:#1257DD"/>
		</linearGradient>
		<path style="opacity:0.53;fill:url(#SVGID_00000094588168444067369770000012891018036030220730_);" d="M-2552.5-426.6
			c0,0,274,618.5,689.3,127.5c0,0,131.8-162.2,434.1-40v2348h-1123.4V-426.6z"/>
	</g>
	<g>
		<g>
			
				<linearGradient id="SVGID_00000132050141927640404770000016801987504420232848_" gradientUnits="userSpaceOnUse" x1="-2239.6287" y1="-144.5342" x2="-1992.5151" y2="-252.0924" gradientTransform="matrix(1 0 0 1 4.136139e-03 15.2358)">
				<stop  offset="0" style="stop-color:#8E56F5"/>
				<stop  offset="0.3062" style="stop-color:#7A51F2"/>
				<stop  offset="0.9301" style="stop-color:#4744EB"/>
				<stop  offset="0.9968" style="stop-color:#4142EA"/>
			</linearGradient>
			<path style="fill:url(#SVGID_00000132050141927640404770000016801987504420232848_);" d="M-2166.2-178.1c0,0-12.4-58.8,83-59.7
				c87.3-0.8,74.3,49.1,268.7-24.4C-1814.5-262.2-2087.7-124-2166.2-178.1z"/>
			<g>
				
					<linearGradient id="SVGID_00000001635972415599301020000007705201120952268675_" gradientUnits="userSpaceOnUse" x1="-1989.704" y1="-300.3931" x2="-1992.8571" y2="-0.8583" gradientTransform="matrix(1 0 0 1 4.136139e-03 15.2358)">
					<stop  offset="0" style="stop-color:#13C3AF"/>
					<stop  offset="0.1585" style="stop-color:#13BAB3"/>
					<stop  offset="0.4117" style="stop-color:#13A3BD"/>
					<stop  offset="0.7261" style="stop-color:#127ECD"/>
					<stop  offset="1" style="stop-color:#1257DD"/>
				</linearGradient>
				<path style="fill:url(#SVGID_00000001635972415599301020000007705201120952268675_);" d="M-2034.9,19.8
					c69.2-6.8,92.7,46.2,157.7,58.2c1.4-1,2.3-2.5,2.6-4.3l60-336c-101.7-24.9-142.9,42.9-221.9,74.6
					c-78.9,31.7-129.9,9.5-129.9,9.5l46.5,252c0.1,0.8,0.4,1.5,0.8,2.2C-2112.6,59.7-2092.8,25.5-2034.9,19.8z"/>
				
					<linearGradient id="SVGID_00000134947396599285856170000005121180534008634526_" gradientUnits="userSpaceOnUse" x1="-1910.512" y1="-329.5934" x2="-1877.931" y2="-306.4714" gradientTransform="matrix(1 0 0 1 4.136139e-03 15.2358)">
					<stop  offset="0" style="stop-color:#13C3AF"/>
					<stop  offset="0.1068" style="stop-color:#13BAB3"/>
					<stop  offset="0.2775" style="stop-color:#13A3BD"/>
					<stop  offset="0.4894" style="stop-color:#127ECD"/>
					<stop  offset="0.674" style="stop-color:#1257DD"/>
				</linearGradient>
				<path style="fill:url(#SVGID_00000134947396599285856170000005121180534008634526_);" d="M-1895.6-292.2
					c6.4,0,11.6-5.2,11.6-11.6s-5.2-11.6-11.6-11.6c-6.4,0-11.6,5.2-11.6,11.6S-1902-292.2-1895.6-292.2z"/>
				
					<linearGradient id="SVGID_00000004509289202848400720000003415237272604147591_" gradientUnits="userSpaceOnUse" x1="-1992.3976" y1="-25.1174" x2="-1998.7036" y2="72.6255" gradientTransform="matrix(1 0 0 1 4.136139e-03 15.2358)">
					<stop  offset="0" style="stop-color:#13C3AF"/>
					<stop  offset="0.1585" style="stop-color:#13BAB3"/>
					<stop  offset="0.4117" style="stop-color:#13A3BD"/>
					<stop  offset="0.7261" style="stop-color:#127ECD"/>
					<stop  offset="1" style="stop-color:#1257DD"/>
				</linearGradient>
				<path style="fill:url(#SVGID_00000004509289202848400720000003415237272604147591_);" d="M-2115.1,79.2
					c20.9,6.3,120.8,32.7,235.8-0.1c0.8-0.2,1.5-0.6,2.1-1.1c-65-12-89.2-66.8-158.5-60c-58,5.7-77,41.6-83.3,58.1
					C-2118,77.6-2116.7,78.7-2115.1,79.2z"/>
			</g>
		</g>
		
			<linearGradient id="SVGID_00000078755280561733823130000018336321459809683600_" gradientUnits="userSpaceOnUse" x1="-2274.3054" y1="-79.5572" x2="-1706.9935" y2="-79.5572">
			<stop  offset="0" style="stop-color:#8E56F5"/>
			<stop  offset="0.3062" style="stop-color:#7A51F2"/>
			<stop  offset="0.9301" style="stop-color:#4744EB"/>
			<stop  offset="0.9968" style="stop-color:#4142EA"/>
		</linearGradient>
		
			<polyline style="fill:none;stroke:url(#SVGID_00000078755280561733823130000018336321459809683600_);stroke-width:6;stroke-linecap:round;stroke-linejoin:round;stroke-miterlimit:10;" points="
			-2271.3,-309.1 -2271.3,150 -1710,150 -1710,-309.1 		"/>
		
			<text transform="matrix(1 0 0 1 -2273.1489 327.5859)" style="fill:#0B0B0B; font-family:'Montserrat-SemiBold'; font-size:104.1592px;">ITX-TANKY</text>
	</g>
	<g>
		
			<text transform="matrix(1 0 0 1 -2259.4766 866.3005)" style="fill:#0B0B0B; font-family:'Montserrat-Regular'; font-size:253.5812px;">45%</text>
	</g>
	<g>
		<g>
			
				<text transform="matrix(1 0 0 1 -2199.6531 1011.5232)" style="fill:#0B0B0B; font-family:'Montserrat-Regular'; font-size:35.6866px;">Life Time:</text>
			
				<text transform="matrix(1 0 0 1 -1915.1198 1011.5232)" style="fill:#0B0B0B; font-family:'Montserrat-Regular'; font-size:35.6866px;">2 Days</text>
		</g>
		<g>
			
				<text transform="matrix(1 0 0 1 -2201.7097 1081.4503)" style="fill:#0B0B0B; font-family:'Montserrat-Regular'; font-size:35.6866px;">Total Vol:</text>
			
				<text transform="matrix(1 0 0 1 -1914.8981 1081.4503)" style="fill:#0B0B0B; font-family:'Montserrat-Regular'; font-size:35.6866px;">20 Liter</text>
		</g>
		<g>
			<text transform="matrix(1 0 0 1 -2196.6052 1129.9652)"><tspan x="0" y="0" style="fill:#0B0B0B; font-family:'Montserrat-Regular'; font-size:35.6866px;">Remaining</tspan><tspan x="0" y="42.8" style="fill:#0B0B0B; font-family:'Montserrat-Regular'; font-size:35.6866px;">Vol:</tspan></text>
			
				<text transform="matrix(1 0 0 1 -1915.109 1151.3773)" style="fill:#0B0B0B; font-family:'Montserrat-Regular'; font-size:35.6866px;">10 Liter</text>
		</g>
		<g>
			
				<text transform="matrix(1 0 0 1 -2197.1599 1221.3044)" style="fill:#0B0B0B; font-family:'Montserrat-Regular'; font-size:35.6866px;">Pump</text>
			
				<text transform="matrix(1 0 0 1 -1914.9039 1221.3044)" style="fill:#0B0B0B; font-family:'Montserrat-Regular'; font-size:35.6866px;">Off</text>
		</g>
	</g>
	<g>
		<text transform="matrix(1 0 0 1 -3514.2395 129.5293)"><tspan x="0" y="0" class="st12" style="font-family:'Montserrat-SemiBold'; font-size:125.4721px;">ITX-</tspan><tspan x="250.8" y="0" style="fill:#91C9E2; font-family:'Montserrat-SemiBold'; font-size:125.4721px;">TANKY</tspan></text>
	</g>
</g>
<g id="Layer_1_00000135685765248743004460000000048367615678908855_">
	<rect x="-3764.1" y="-441.6" class="st0" width="1152" height="2465"/>
	<g>
		
			<linearGradient id="SVGID_00000015345769007848840720000006803509875182195842_" gradientUnits="userSpaceOnUse" x1="-3188.5408" y1="674.8475" x2="-3185.145" y2="2151.9133">
			<stop  offset="0" style="stop-color:#13C3AF"/>
			<stop  offset="0.1585" style="stop-color:#13BAB3"/>
			<stop  offset="0.4117" style="stop-color:#13A3BD"/>
			<stop  offset="0.7261" style="stop-color:#127ECD"/>
			<stop  offset="1" style="stop-color:#1257DD"/>
		</linearGradient>
		<path style="opacity:0.83;fill:url(#SVGID_00000015345769007848840720000006803509875182195842_);" d="M-3748.5,917.6
			c0,0,195-271.1,619.2-52.6c0,0,267.9,91.4,504.2,6.8V2009h-1123.4V917.6z"/>
		
			<linearGradient id="SVGID_00000085936259421001080430000000428866107750085815_" gradientUnits="userSpaceOnUse" x1="-3188.5505" y1="624.689" x2="-3185.0276" y2="2157.2341">
			<stop  offset="0" style="stop-color:#13C3AF"/>
			<stop  offset="0.1585" style="stop-color:#13BAB3"/>
			<stop  offset="0.4117" style="stop-color:#13A3BD"/>
			<stop  offset="0.7261" style="stop-color:#127ECD"/>
			<stop  offset="1" style="stop-color:#1257DD"/>
		</linearGradient>
		<path style="opacity:0.53;fill:url(#SVGID_00000085936259421001080430000000428866107750085815_);" d="M-3748.5,734.4
			c0,0,274,323.7,689.3,66.7c0,0,131.8-84.9,434.1-20.9V2009h-1123.4V734.4z"/>
	</g>
	<g>
		<circle class="st10" cx="-3652.3" cy="1358.5" r="19.1"/>
		<circle class="st10" cx="-3388.2" cy="1677.3" r="12.8"/>
		<circle class="st10" cx="-3574.9" cy="997.7" r="19.1"/>
		<circle class="st10" cx="-2764.2" cy="945.8" r="19.1"/>
		<g>
			<circle class="st10" cx="-3212.4" cy="1171.7" r="26.4"/>
			<circle class="st10" cx="-3238.8" cy="1198.1" r="33.7"/>
		</g>
		<g>
			<circle class="st10" cx="-2950.5" cy="1536.1" r="12.8"/>
			<circle class="st10" cx="-2915" cy="1523.4" r="22.8"/>
		</g>
		<g>
			<circle class="st10" cx="-3024.7" cy="1047.8" r="12.8"/>
			<circle class="st10" cx="-2970.1" cy="1026.9" r="41.9"/>
		</g>
	</g>
	<g>
		<g>
			
				<text transform="matrix(1 0 0 1 -3395.6533 1011.5232)" style="fill:#0B0B0B; font-family:'Montserrat-Regular'; font-size:35.6866px;">Life Time:</text>
			
				<text transform="matrix(1 0 0 1 -3111.1201 1011.5232)" style="fill:#0B0B0B; font-family:'Montserrat-Regular'; font-size:35.6866px;">2 Days</text>
		</g>
		<g>
			
				<text transform="matrix(1 0 0 1 -3397.71 1081.4503)" style="fill:#0B0B0B; font-family:'Montserrat-Regular'; font-size:35.6866px;">Total Vol:</text>
			
				<text transform="matrix(1 0 0 1 -3110.8984 1081.4503)" style="fill:#0B0B0B; font-family:'Montserrat-Regular'; font-size:35.6866px;">20 Liter</text>
		</g>
		<g>
			<text transform="matrix(1 0 0 1 -3392.6055 1129.9652)"><tspan x="0" y="0" style="fill:#0B0B0B; font-family:'Montserrat-Regular'; font-size:35.6866px;">Remaining</tspan><tspan x="0" y="42.8" style="fill:#0B0B0B; font-family:'Montserrat-Regular'; font-size:35.6866px;">Vol:</tspan></text>
			
				<text transform="matrix(1 0 0 1 -3111.1094 1151.3773)" style="fill:#0B0B0B; font-family:'Montserrat-Regular'; font-size:35.6866px;">10 Liter</text>
		</g>
		<g>
			
				<text transform="matrix(1 0 0 1 -3393.1602 1221.3044)" style="fill:#0B0B0B; font-family:'Montserrat-Regular'; font-size:35.6866px;">Pump</text>
			
				<text transform="matrix(1 0 0 1 -3110.9043 1221.3044)" style="fill:#0B0B0B; font-family:'Montserrat-Regular'; font-size:35.6866px;">Off</text>
		</g>
	</g>
	<g>
		
			<text transform="matrix(1 0 0 1 -3543.3589 1449.4717)" style="fill:#0B0B0B; font-family:'Montserrat-Medium'; font-size:98.4884px;">INFORMATIVE</text>
	</g>
	
		<text transform="matrix(1 0 0 1 -3309.2483 1943.3799)" style="fill:#FCFCFC; font-family:'Montserrat-Medium'; font-size:37.2617px;">Press Button</text>
	<g>
		<g>
			<circle class="st11" cx="-3187.6" cy="1712.7" r="154.5"/>
			<circle class="st12" cx="-3187.6" cy="1712.7" r="127.3"/>
		</g>
		<g>
			<path class="st13" d="M-3190.5,1648.4c-13.7,17.9-64.7,82.4-27,118.6c16.2,15.5,40.7,15,58.3,1.2c22-17.3,25.5-48.6-24.5-119.6
				C-3185.4,1646.2-3188.8,1646.1-3190.5,1648.4z"/>
			<path class="st14" d="M-3215.1,1724.3c0,0-2.6,34.5,16.6,38.3"/>
		</g>
	</g>
	<g>
		<g>
			<circle class="st11" cx="439.9" cy="461.4" r="401"/>
			<circle class="st12" cx="439.9" cy="461.4" r="330.4"/>
		</g>
		<g>
			<path class="st13" d="M432.3,294.6c-35.7,46.5-168,213.8-70.2,307.7c42,40.3,105.6,39,151.3,3c57.1-45,66.1-126.3-63.5-310.4
				C445.6,288.9,436.7,288.7,432.3,294.6z"/>
			<path class="st14" d="M368.5,491.7c0,0-6.6,89.4,43.1,99.4"/>
		</g>
	</g>
	<g>
		<g>
			
				<linearGradient id="SVGID_00000038410167300025035230000009619184988636982425_" gradientUnits="userSpaceOnUse" x1="-3434.707" y1="-148.5342" x2="-3187.5935" y2="-256.0924" gradientTransform="matrix(1 0 0 1 4.136139e-03 15.2358)">
				<stop  offset="0" style="stop-color:#8E56F5"/>
				<stop  offset="0.3062" style="stop-color:#7A51F2"/>
				<stop  offset="0.9301" style="stop-color:#4744EB"/>
				<stop  offset="0.9968" style="stop-color:#4142EA"/>
			</linearGradient>
			<path style="fill:url(#SVGID_00000038410167300025035230000009619184988636982425_);" d="M-3361.3-182.1c0,0-12.4-58.8,83-59.7
				c87.3-0.8,74.3,49.1,268.7-24.4C-3009.6-266.2-3282.7-128-3361.3-182.1z"/>
			<g>
				
					<linearGradient id="SVGID_00000047765465513481560390000014755563861522756994_" gradientUnits="userSpaceOnUse" x1="-3184.7825" y1="-304.3931" x2="-3187.9353" y2="-4.8583" gradientTransform="matrix(1 0 0 1 4.136139e-03 15.2358)">
					<stop  offset="0" style="stop-color:#13C3AF"/>
					<stop  offset="0.1585" style="stop-color:#13BAB3"/>
					<stop  offset="0.4117" style="stop-color:#13A3BD"/>
					<stop  offset="0.7261" style="stop-color:#127ECD"/>
					<stop  offset="1" style="stop-color:#1257DD"/>
				</linearGradient>
				<path style="fill:url(#SVGID_00000047765465513481560390000014755563861522756994_);" d="M-3229.9,15.8
					c69.2-6.8,92.7,46.2,157.7,58.2c1.4-1,2.3-2.5,2.6-4.3l60-336c-101.7-24.9-142.9,42.9-221.9,74.6
					c-78.9,31.7-129.9,9.5-129.9,9.5l46.5,252c0.1,0.8,0.4,1.5,0.8,2.2C-3307.7,55.7-3287.9,21.5-3229.9,15.8z"/>
				
					<linearGradient id="SVGID_00000031901207116138738500000018165832929141962938_" gradientUnits="userSpaceOnUse" x1="-3105.5903" y1="-333.5934" x2="-3073.0093" y2="-310.4714" gradientTransform="matrix(1 0 0 1 4.136139e-03 15.2358)">
					<stop  offset="0" style="stop-color:#13C3AF"/>
					<stop  offset="0.1068" style="stop-color:#13BAB3"/>
					<stop  offset="0.2775" style="stop-color:#13A3BD"/>
					<stop  offset="0.4894" style="stop-color:#127ECD"/>
					<stop  offset="0.674" style="stop-color:#1257DD"/>
				</linearGradient>
				<path style="fill:url(#SVGID_00000031901207116138738500000018165832929141962938_);" d="M-3090.7-296.2
					c6.4,0,11.6-5.2,11.6-11.6s-5.2-11.6-11.6-11.6c-6.4,0-11.6,5.2-11.6,11.6S-3097.1-296.2-3090.7-296.2z"/>
				
					<linearGradient id="SVGID_00000029741292065410557300000014892036688395220150_" gradientUnits="userSpaceOnUse" x1="-3187.4761" y1="-29.1174" x2="-3193.782" y2="68.6255" gradientTransform="matrix(1 0 0 1 4.136139e-03 15.2358)">
					<stop  offset="0" style="stop-color:#13C3AF"/>
					<stop  offset="0.1585" style="stop-color:#13BAB3"/>
					<stop  offset="0.4117" style="stop-color:#13A3BD"/>
					<stop  offset="0.7261" style="stop-color:#127ECD"/>
					<stop  offset="1" style="stop-color:#1257DD"/>
				</linearGradient>
				<path style="fill:url(#SVGID_00000029741292065410557300000014892036688395220150_);" d="M-3310.2,75.2
					c20.9,6.3,120.8,32.7,235.8-0.1c0.8-0.2,1.5-0.6,2.1-1.1c-65-12-89.2-66.8-158.5-60c-58,5.7-77,41.6-83.3,58.1
					C-3313.1,73.6-3311.8,74.7-3310.2,75.2z"/>
			</g>
		</g>
		
			<linearGradient id="SVGID_00000015315436395734144050000006499015715957645740_" gradientUnits="userSpaceOnUse" x1="-3469.3838" y1="-83.5572" x2="-2902.072" y2="-83.5572">
			<stop  offset="0" style="stop-color:#8E56F5"/>
			<stop  offset="0.3062" style="stop-color:#7A51F2"/>
			<stop  offset="0.9301" style="stop-color:#4744EB"/>
			<stop  offset="0.9968" style="stop-color:#4142EA"/>
		</linearGradient>
		
			<polyline style="fill:none;stroke:url(#SVGID_00000015315436395734144050000006499015715957645740_);stroke-width:6;stroke-linecap:round;stroke-linejoin:round;stroke-miterlimit:10;" points="
			-3466.4,-313.1 -3466.4,146 -2905.1,146 -2905.1,-313.1 		"/>
		
			<text transform="matrix(1 0 0 1 -3468.2273 323.5859)" style="fill:#0B0B0B; font-family:'Montserrat-SemiBold'; font-size:104.1592px;">ITX-TANKY</text>
	</g>
	
		<text transform="matrix(1 0 0 1 -3455.4766 866.3005)" style="fill:#0B0B0B; font-family:'Montserrat-Regular'; font-size:253.5812px;">45%</text>
</g>
<g id="Layer_3">
	
		<linearGradient id="SVGID_00000022540929799756955570000014123899182167907494_" gradientUnits="userSpaceOnUse" x1="-778.4027" y1="779.4592" x2="-775.2732" y2="2140.8157">
		<stop  offset="0" style="stop-color:#13C3AF"/>
		<stop  offset="0.1585" style="stop-color:#13BAB3"/>
		<stop  offset="0.4117" style="stop-color:#13A3BD"/>
		<stop  offset="0.7261" style="stop-color:#127ECD"/>
		<stop  offset="1" style="stop-color:#1257DD"/>
	</linearGradient>
	<path style="opacity:0.83;fill:url(#SVGID_00000022540929799756955570000014123899182167907494_);" d="M-1338.5,1003.3
		c0,0,195-249.9,619.2-48.5c0,0,267.9,84.2,504.2,6.2V2009h-1123.4V1003.3z"/>
</g>
<g id="Layer_4">
	
		<linearGradient id="SVGID_00000105384421087835106390000009254576417557678526_" gradientUnits="userSpaceOnUse" x1="-778.412" y1="733.1756" x2="-775.1649" y2="2145.7256">
		<stop  offset="0" style="stop-color:#13C3AF"/>
		<stop  offset="0.1585" style="stop-color:#13BAB3"/>
		<stop  offset="0.4117" style="stop-color:#13A3BD"/>
		<stop  offset="0.7261" style="stop-color:#127ECD"/>
		<stop  offset="1" style="stop-color:#1257DD"/>
	</linearGradient>
	<path style="opacity:0.53;fill:url(#SVGID_00000105384421087835106390000009254576417557678526_);" d="M-1338.5,834.4
		c0,0,274,298.3,689.3,61.5c0,0,131.8-78.2,434.1-19.3V2009h-1123.4V834.4z"/>
	<g>
		<g>
			<g>
				<g>
					
						<image style="overflow:visible;" width="469" height="177" xlink:href="3FF977F8.png"  transform="matrix(1 0 0 1 -2226.0715 1376.3691)">
					</image>
				</g>
				<g>
					<path class="st12" d="M-1816.3,1505h-350.5c-6.6,0-12-5.4-12-12v-55.6c0-6.6,5.4-12,12-12h350.5c6.6,0,12,5.4,12,12v55.6
						C-1804.3,1499.6-1809.7,1505-1816.3,1505z"/>
				</g>
			</g>
			
				<text transform="matrix(1 0 0 1 -2044.0576 1479.835)" class="st13" style="font-family:'Montserrat-Bold'; font-size:49.4688px;">EDIT</text>
		</g>
		<g>
			<g>
				<g>
					<g>
						
							<image style="overflow:visible;" width="469" height="178" xlink:href="3FF977F5.png"  transform="matrix(1 0 0 1 -1938.0714 1645.3691)">
						</image>
					</g>
					<g>
						<path class="st12" d="M-1527.9,1774.1h-350.5c-6.6,0-12-5.4-12-12v-55.6c0-6.6,5.4-12,12-12h350.5c6.6,0,12,5.4,12,12v55.6
							C-1515.9,1768.7-1521.3,1774.1-1527.9,1774.1z"/>
					</g>
				</g>
				
					<text transform="matrix(1 0 0 1 -1755.6749 1748.9062)" class="st13" style="font-family:'Montserrat-Bold'; font-size:49.4688px;">OFF</text>
			</g>
			<g>
				<g>
					<g>
						
							<image style="overflow:visible;" width="469" height="178" xlink:href="3FF977F6.png"  transform="matrix(1 0 0 1 -2514.0715 1635.3691)">
						</image>
					</g>
					<g>
						<path class="st12" d="M-2104.7,1764.2h-350.5c-6.6,0-12-5.4-12-12v-55.6c0-6.6,5.4-12,12-12h350.5c6.6,0,12,5.4,12,12v55.6
							C-2092.7,1758.8-2098.1,1764.2-2104.7,1764.2z"/>
					</g>
				</g>
				
					<text transform="matrix(1 0 0 1 -2320.8147 1738.9766)" class="st13" style="font-family:'Montserrat-Bold'; font-size:49.4688px;">ON</text>
			</g>
			<g>
				<g>
					<circle class="st11" cx="-1974.5" cy="1722.7" r="154.5"/>
					<circle class="st12" cx="-1974.5" cy="1722.7" r="127.3"/>
				</g>
				<g>
					<path class="st13" d="M-1977.4,1658.4c-13.7,17.9-64.7,82.4-27,118.6c16.2,15.5,40.7,15,58.3,1.2c22-17.3,25.5-48.6-24.5-119.6
						C-1972.3,1656.2-1975.7,1656.2-1977.4,1658.4z"/>
					<path class="st14" d="M-2002,1734.4c0,0-2.6,34.5,16.6,38.3"/>
				</g>
			</g>
		</g>
	</g>
</g>
</svg>
