<?xml version="1.0" encoding="utf-8"?>
<!-- Generator: Adobe Illustrator 26.0.1, SVG Export Plug-In . SVG Version: 6.00 Build 0)  -->
<svg version="1.1" id="Layer_1" xmlns="http://www.w3.org/2000/svg" xmlns:xlink="http://www.w3.org/1999/xlink" x="0px" y="0px"
	 viewBox="0 0 1080 1080" style="enable-background:new 0 0 1080 1080;" xml:space="preserve">
<style type="text/css">
	.st0{fill:#7A6AEF;stroke:#0B0B0B;stroke-width:3;stroke-miterlimit:10;}
	.st1{fill:none;stroke:#0B0B0B;stroke-width:3;stroke-linecap:round;stroke-linejoin:round;stroke-miterlimit:10;}
	.st2{fill:#EAEAEA;stroke:#0B0B0B;stroke-miterlimit:10;}
	.st3{fill:none;stroke:#7194DB;stroke-width:3;stroke-miterlimit:10;}
	.st4{fill:url(#SVGID_1_);stroke:#0B0B0B;stroke-width:5;stroke-miterlimit:10;}
	.st5{fill:url(#SVGID_00000178894643526990867380000003300892301515890594_);stroke:#0B0B0B;stroke-width:5;stroke-miterlimit:10;}
	.st6{fill:#EAEAEA;stroke:#0B0B0B;stroke-width:3;stroke-miterlimit:10;}
	.st7{fill:url(#SVGID_00000129205786908995384670000014995714133640455826_);stroke:#0B0B0B;stroke-width:5;stroke-miterlimit:10;}
	.st8{fill:none;stroke:#0B0B0B;stroke-width:4;stroke-miterlimit:10;}
	.st9{fill:#EAEAEA;stroke:#0B0B0B;stroke-width:2;stroke-miterlimit:10;}
	.st10{fill:#0B0B0B;}
	.st11{fill:url(#SVGID_00000121984758934735100370000011073148263857595529_);stroke:#0B0B0B;stroke-width:5;stroke-miterlimit:10;}
	.st12{fill:none;stroke:#7194DB;stroke-width:7;stroke-miterlimit:10;}
</style>
<g>
	<g>
		<path class="st0" d="M885.1,462.6l15.9-25.9c3.5-5.7,7.3-7.7,13.3-4.3c0.1,0,1.7,0.9,1.8,0.9l54.7,31.8l14,7.2l-34.6,8.1l5.5,35.8
			l-67.2-40.6c0,0-6.2-2.9-4.9-8.5C883.9,465.5,884.2,463.9,885.1,462.6z"/>
		<line class="st1" x1="863.3" y1="502.8" x2="914.9" y2="418.9"/>
		<circle class="st2" cx="916.4" cy="417.3" r="6.1"/>
	</g>
	<g>
		<path class="st0" d="M282.8,307.7l17.1-27.8c3.8-6.1,7.8-8.3,14.2-4.6c0.1,0.1,1.8,0.9,1.9,1l58.5,34.3l15,7.7l-37.1,8.5l5.8,38.4
			l-72-43.7c0,0-6.7-3.1-5.2-9.1C281.5,310.8,281.9,309.2,282.8,307.7z"/>
		<line class="st1" x1="256.7" y1="354.6" x2="315.8" y2="261"/>
		<circle class="st2" cx="317.4" cy="259.4" r="6.6"/>
	</g>
	<path class="st3" d="M839.1,768.3c0,0-16.7-9.2-29.2,0c0,0-14,14.8-30.2-4.1c0,0-13.2-8.6-26.8,9.6c0,0-10.6,8.4-24.5-5.8
		c0,0-9.4-11.2-26.4,4.1c0,0-12.6,9.5-21.5-2.9c0,0-11.9-9-24,0c0,0-9.9,12.4-27.4,0c0,0-12.5-12.1-26.8,0c0,0-13.3,12.4-28,0
		c0,0-10.8-10.5-26.2,0c0,0-11,13.9-25.7,0c0,0-10.7-12.1-25.7,0c0,0-9.3,15.5-26.2,0c0,0-9.6-10.5-25.7,0c0,0-11.5,15.5-25.1,0
		c0,0-11.8-9-26.2,0c0,0-16.6,13.9-28,0c0,0-11.8-7.5-25.7,0c0,0-13.8,12.4-27.4,0c0,0-9.5-10.5-25.1,0c0,0-12.1,13.9-25.7,0
		c0,0-11.7-7.5-24,0"/>
	<path class="st3" d="M451.9,849.4c0,0-9.9-9.2-17.3,0c0,0-8.3,14.8-17.9-4.1c0,0-7.8-8.6-15.9,9.6c0,0-6.3,8.4-14.5-5.8
		c0,0-5.6-11.2-15.6,4.1c0,0-7.5,9.5-12.8-2.9c0,0-7-9-14.2,0c0,0-5.9,12.4-16.2,0c0,0-7.4-12.1-15.9,0c0,0-7.9,12.4-16.6,0
		c0,0-6.4-10.5-15.6,0c0,0-6.5,13.9-15.2,0c0,0-6.4-12.1-15.2,0c0,0-5.5,15.5-15.6,0c0,0-5.7-10.5-15.2,0c0,0-6.8,15.5-14.9,0
		c0,0-7-9-15.6,0c0,0-9.9,13.9-16.6,0c0,0-7-7.5-15.2,0c0,0-8.2,12.4-16.2,0c0,0-5.6-10.5-14.9,0c0,0-7.1,13.9-15.2,0
		c0,0-7-7.5-14.2,0"/>
	<path class="st3" d="M565.1,843.6c0,0,10.4,9.2,18.2,0c0,0,8.8-14.8,18.9,4.1c0,0,8.2,8.6,16.7-9.6c0,0,6.6-8.4,15.3,5.8
		c0,0,5.9,11.2,16.4-4.1c0,0,7.9-9.5,13.4,2.9c0,0,7.4,9,14.9,0c0,0,6.2-12.4,17.1,0c0,0,7.8,12.1,16.7,0c0,0,8.3-12.4,17.4,0
		c0,0,6.7,10.5,16.4,0c0,0,6.9-13.9,16,0c0,0,6.7,12.1,16,0c0,0,5.8-15.5,16.4,0c0,0,6,10.5,16,0c0,0,7.2-15.5,15.7,0
		c0,0,7.4,9,16.4,0c0,0,10.4-13.9,17.4,0c0,0,7.4,7.5,16,0c0,0,8.6-12.4,17.1,0c0,0,5.9,10.5,15.7,0c0,0,7.5-13.9,16,0
		c0,0,7.3,7.5,14.9,0"/>
	<linearGradient id="SVGID_1_" gradientUnits="userSpaceOnUse" x1="184.7774" y1="416.3899" x2="389.409" y2="661.9478">
		<stop  offset="0" style="stop-color:#4481E2"/>
		<stop  offset="1" style="stop-color:#1257DD"/>
	</linearGradient>
	<path class="st4" d="M237.6,344.5l142.3,101.2c0,0,9.2,102.2,35.5,119.8l13.4,8.9l158.9,114.3l16.2,0.2l20.2,6.9
		c0,0-17-15.8-41.4,2.9c0,0-12.8,1.2-33.7-6.1c-8.9-3.1-20-0.2-29,2.6c-13.1,4.1-32.1,7.4-43.2-2.6c0,0-11-10.1-40.6,7.4
		c0,0-12.7,6.1-32.6-6.6c0,0-17-8.5-36.8,4.7c0,0-17.9,5-34.2-7c0,0-11.3-6.7-38.3,9.1c0,0-13.8,3.3-28-8.1c0,0-14.2-8.8-32.6,5.2
		c0,0-18.1,12.1-21.3-1.5C212.5,695.7,108.3,550.2,237.6,344.5z"/>
	
		<linearGradient id="SVGID_00000165940013749962892820000002928699368708622747_" gradientUnits="userSpaceOnUse" x1="539.2657" y1="416.2816" x2="583.6025" y2="634.5553">
		<stop  offset="0" style="stop-color:#4481E2"/>
		<stop  offset="1" style="stop-color:#1257DD"/>
	</linearGradient>
	
		<path style="fill:url(#SVGID_00000165940013749962892820000002928699368708622747_);stroke:#0B0B0B;stroke-width:5;stroke-miterlimit:10;" d="
		M387.4,496.6l120.4-77.7c0,0,19.9-15.3,47.4,7.7l179.5,122.7L624.1,695.7c0,0-19.7-12.8-32.8-2.5L415.4,565.5
		C415.4,565.5,395.6,546.8,387.4,496.6z"/>
	<circle class="st6" cx="686.8" cy="602.5" r="33.7"/>
	
		<linearGradient id="SVGID_00000124147734240910436120000002934449577609367433_" gradientUnits="userSpaceOnUse" x1="820.1395" y1="512.0012" x2="889.4869" y2="549.517">
		<stop  offset="0" style="stop-color:#4481E2"/>
		<stop  offset="1" style="stop-color:#1257DD"/>
	</linearGradient>
	
		<polygon style="fill:url(#SVGID_00000124147734240910436120000002934449577609367433_);stroke:#0B0B0B;stroke-width:5;stroke-miterlimit:10;" points="
		797.6,523.3 833.7,481.4 910.3,536.7 878.2,581.4 	"/>
	<path class="st6" d="M513.9,529.1l-81.1-61.2l58.2-38.3l64.3,46.1c17.2,13.7,27.5,36.5,12.2,54.9l-3.1,3.1
		C552.1,544.4,531,542.8,513.9,529.1z"/>
	<circle class="st6" cx="614.9" cy="555.1" r="33.7"/>
	<circle class="st2" cx="420.5" cy="613.2" r="9.2"/>
	<circle class="st2" cx="399.1" cy="643.9" r="9.2"/>
	<circle class="st2" cx="377.7" cy="669.9" r="9.2"/>
	<line class="st8" x1="415.5" y1="568.9" x2="330.3" y2="690.2"/>
	<path class="st9" d="M787.8,369.9H627.2c0,0,7.6-16.2,26-15.7c0,0,12.2-19.5,39.8-7.2c0,0,21.4-36.7,62.8-9.2
		C755.7,337.8,778.6,350,787.8,369.9z"/>
	<path class="st9" d="M592.7,258.2H458.1c0,0,6.4-13.6,21.8-13.2c0,0,10.3-16.3,33.3-6c0,0,18-30.8,52.6-7.7
		C565.8,231.2,585,241.5,592.7,258.2z"/>
	<polygon class="st10" points="807.3,253.4 799.5,252 800.1,259.8 795,253.8 790.4,260.2 790.5,252.3 782.8,254.2 787.9,248.2 
		780.8,244.8 788.6,243.4 785.4,236.2 792.2,240.2 794.3,232.6 797,240 803.5,235.6 800.8,243 808.6,243.8 801.8,247.7 	"/>
	<polygon class="st10" points="874.8,325.9 869.8,325 870.1,330.1 866.9,326.2 863.9,330.3 863.9,325.2 859,326.5 862.3,322.6 
		857.7,320.4 862.7,319.5 860.6,314.9 865,317.4 866.4,312.5 868.1,317.3 872.4,314.5 870.6,319.2 875.7,319.8 871.2,322.3 	"/>
	<polygon class="st10" points="448.8,330.4 444.6,329.7 444.9,333.9 442.2,330.7 439.7,334.1 439.7,329.9 435.6,330.9 438.3,327.6 
		434.5,325.8 438.7,325.1 437,321.2 440.6,323.3 441.8,319.2 443.2,323.2 446.8,320.9 445.3,324.8 449.5,325.3 445.8,327.4 	"/>
	<polygon class="st10" points="154.6,317.4 144.8,322.5 139.3,332.1 134.3,322.3 124.7,316.8 134.5,311.7 140,302.1 145.1,311.9 	
		"/>
	
		<linearGradient id="SVGID_00000107559527943302106630000017909940120163023760_" gradientUnits="userSpaceOnUse" x1="842.0443" y1="560.5447" x2="713.5811" y2="691.2815">
		<stop  offset="0" style="stop-color:#4481E2"/>
		<stop  offset="1" style="stop-color:#1257DD"/>
	</linearGradient>
	
		<path style="fill:url(#SVGID_00000107559527943302106630000017909940120163023760_);stroke:#0B0B0B;stroke-width:5;stroke-miterlimit:10;" d="
		M624.1,695.7L769.5,503l133.8,96.3l-65,96.3c0,0-16-12.3-40.7,1.3c0,0-24.6,6.5-36.6-4.5c0,0-12-7.6-32.5,3.2
		c0,0-20.5,7.8-36.5-0.2c0,0-13.2-14.6-33.1,0.2C658.9,695.7,637.2,706.9,624.1,695.7"/>
	<path class="st12" d="M124.4,696.7c0,0,22.6,9.2,39.6,0c0,0,19-14.8,41,4.1c0,0,17.8,8.6,36.3-9.6c0,0,14.3-8.4,33.3,5.8
		c0,0,12.8,11.2,35.8-4.1c0,0,17.1-9.5,29.2,2.9c0,0,16.1,9,32.5,0c0,0,13.5-12.4,37.1,0c0,0,16.9,12.1,36.3,0c0,0,18.1-12.4,37.9,0
		c0,0,14.6,10.5,35.6,0c0,0,15-13.9,34.8,0c0,0,14.6,12.1,34.8,0c0,0,12.6-15.5,35.6,0c0,0,13,10.5,34.8,0c0,0,15.6-15.5,34,0
		c0,0,16,9,35.6,0c0,0,22.6-13.9,37.9,0c0,0,16,7.5,34.8,0c0,0,18.7-12.4,37.1,0c0,0,12.9,10.5,34,0c0,0,16.3-13.9,34.8,0
		c0,0,15.9,7.5,32.5,0"/>
</g>
</svg>
